<svg width="12" height="12" viewBox="0 0 12 12" fill="none" xmlns="http://www.w3.org/2000/svg">
<path d="M6.70913 11.7141L11.7091 6.71409C11.8002 6.61899 11.8715 6.50684 11.9191 6.38409C12.0191 6.14063 12.0191 5.86755 11.9191 5.62409C11.8715 5.50134 11.8002 5.3892 11.7091 5.29409L6.70913 0.294091C6.61589 0.200853 6.5052 0.126892 6.38338 0.076432C6.26155 0.0259717 6.13099 -2.56287e-07 5.99913 -2.6205e-07C5.73283 -2.73691e-07 5.47743 0.105788 5.28913 0.294091C5.10082 0.482395 4.99504 0.73779 4.99504 1.00409C4.99504 1.27039 5.10082 1.52579 5.28913 1.71409L8.58913 5.00409L0.999127 5.00409C0.73391 5.00409 0.479556 5.10945 0.29202 5.29698C0.104483 5.48452 -0.000872863 5.73887 -0.000872874 6.00409C-0.000872886 6.26931 0.104483 6.52366 0.29202 6.7112C0.479556 6.89873 0.73391 7.00409 0.999127 7.00409L8.58913 7.00409L5.28913 10.2941C5.1954 10.3871 5.121 10.4977 5.07024 10.6195C5.01947 10.7414 4.99333 10.8721 4.99333 11.0041C4.99333 11.1361 5.01947 11.2668 5.07024 11.3887C5.121 11.5105 5.1954 11.6211 5.28913 11.7141C5.38209 11.8078 5.49269 11.8822 5.61455 11.933C5.73641 11.9838 5.86711 12.0099 5.99913 12.0099C6.13114 12.0099 6.26184 11.9838 6.3837 11.933C6.50556 11.8822 6.61616 11.8078 6.70913 11.7141Z" fill="#56A2E9"/>
</svg>
