<svg width="118" height="53" viewBox="0 0 118 53" fill="none" xmlns="http://www.w3.org/2000/svg">
<path d="M83.2481 4.66285V6.56008H99.6004C100.691 6.56008 102.326 6.56008 103.399 7.64515C104.473 8.73022 104.49 10.3578 104.49 11.4265V27.7025C104.49 28.7876 104.49 30.4152 103.399 31.4838C102.309 32.5689 100.674 32.5689 99.6004 32.5689H91.705C90.344 32.5689 88.57 32.5689 87.906 31.0761C87.2255 29.5833 88.1782 28.2286 88.9962 27.1304L99.6334 13.0245H83.2811L76.7402 21.705C75.6434 23.1584 74.6953 24.4177 74.6953 26.0453C74.6953 27.6729 75.5773 28.8435 76.7402 30.3856L78.3754 32.5557C80.0106 34.7259 81.6459 36.896 83.8262 37.9811C86.0065 39.0662 88.5832 39.0662 92.151 39.0662H99.2205C103.317 39.0662 109.428 39.0662 113.525 34.9889C117.621 30.9117 117.621 24.9602 117.621 22.7901V16.2797C117.621 14.1095 117.621 8.1581 113.525 4.08086C109.428 0.00362777 103.317 0.00362777 99.2205 0.00362777L87.9225 1.08749e-05C86.8324 -0.000317934 85.4713 1.08968e-05 84.3878 1.08508C83.2976 2.17015 83.2976 3.52485 83.2976 4.60334" fill="#C4151C"/>
<path d="M63.7572 13.0801H79.9444L60.4537 39.1875H44.2666L63.7572 13.0801Z" fill="#C4151C"/>
<path d="M0 17.6834C0 16.5983 0 15.2436 1.09015 14.1651C2.18031 13.0867 3.54135 13.0801 4.6249 13.0801H32.0109C35.5456 13.0801 38.1554 13.0801 40.3357 14.1651C42.516 15.2502 44.1347 17.4204 45.7865 19.5905L47.4217 21.7606C48.5812 23.2995 49.4666 24.4733 49.4666 26.1009C49.4666 27.7285 48.5185 28.9879 47.4217 30.4412L40.8808 39.1218H24.5285L35.1657 25.0159C35.9817 23.9308 36.9364 22.5761 36.2559 21.0701C35.5754 19.5773 33.8047 19.5773 32.4569 19.5773H19.6393V52.1295H6.55744V19.5773H0.0165175V17.6768" fill="#C4151C"/>
</svg>
