<svg width="207" height="21" viewBox="0 0 207 21" fill="none" xmlns="http://www.w3.org/2000/svg">
<path d="M9.66227 16.6648C4.43994 14.5808 2.86537 10.056 3.05556 8.15187C3.24638 6.24866 4.0376 5.7384 4.63682 5.56685C4.63682 5.56685 1.938 4.28207 0.790599 6.39043C0.281544 7.60244 0 8.93383 0 10.3311C0 15.9531 4.55601 20.5107 10.1752 20.5107C13.4266 20.5107 16.3217 18.9847 18.1845 16.6104C18.1801 16.6126 14.8803 18.7473 9.66173 16.6645" fill="#005597"/>
<path d="M10.175 0.156028C6.60169 0.156028 3.45853 1.99958 1.64355 4.78725C1.86297 4.69339 2.75243 4.35154 3.69159 4.51501C3.69529 4.51547 3.70093 4.51664 3.70533 4.51664C5.46808 2.25602 8.21597 0.802195 11.3038 0.802195C13.1137 0.802195 14.8075 1.30255 16.2544 2.17147C14.5582 0.905334 12.4544 0.156028 10.175 0.156028Z" fill="#005597"/>
<path d="M9.7428 15.4583C11.0344 16.1967 12.4553 16.6063 13.8612 16.7387C14.4517 16.5933 15.0161 16.3776 15.5152 16.0948C17.5066 14.8517 23.3902 6.68736 23.3902 6.68736C23.3902 6.68736 20.1873 6.02853 18.7975 7.04848C17.404 8.0641 16.3629 9.67954 14.8214 11.4205C13.2787 13.1621 12.6012 14.2579 11.2394 14.6022C10.2281 14.8602 9.26841 14.8173 8.4082 14.6246C8.82154 14.9062 9.26173 15.1829 9.7428 15.4583Z" fill="#005597"/>
<path d="M19.2525 15.8223C20.485 14.9242 23.3635 11.0003 23.3635 11.0003C23.3635 11.0003 21.1545 9.84169 19.1487 11.0003C17.1417 12.1663 17.202 12.461 15.2099 14.1012C13.2215 15.7446 11.7323 15.928 10.6352 15.8434C10.5743 15.8413 10.514 15.8285 10.4531 15.8235C13.3247 17.158 17.0604 17.3772 19.2525 15.8223Z" fill="#E41B13"/>
<path d="M23.3922 0.166836C23.3922 0.166836 20.2757 -0.688429 17.7707 1.47394C15.9719 3.0303 12.0959 13.4685 9.04687 14.0592C8.45576 14.1754 7.98028 14.1879 7.5918 14.1406C7.59796 14.1467 7.60307 14.1517 7.60924 14.1549C8.12202 14.2021 8.71621 14.1841 9.40242 14.0511C12.4493 13.4612 16.4803 3.82477 18.3469 2.34726C20.2146 0.877293 22.4479 1.24154 22.4479 1.24154L20.5304 4.56875L23.3922 0.166836Z" fill="#005597"/>
<path d="M192.648 1.66927L190.529 19.0082H201.833C202.768 19.0082 203.701 18.6537 204.392 18.0371C205 17.4939 205.386 16.7853 205.477 16.0375L206.475 8.2386C206.672 6.60077 205.368 5.269 203.572 5.269H198.055L198.546 1.66895L192.648 1.66927ZM32.1374 1.67139L29.1699 6.24365H34.9691L33.4026 19.0104H39.1529L40.7194 6.24365H45.4371L45.9985 1.67139H32.1374ZM82.7039 1.67139L80.5769 19.0103H86.3251L87.103 12.6699H90.3794L89.6003 19.0103H95.3496L97.4775 1.67139H91.7294L90.9429 8.07976H87.6666L88.453 1.67139H82.7039ZM115.977 1.67139L113.849 19.0103H119.597L120.376 12.6699H123.652L122.873 19.0103H128.622L130.749 1.67139H125.001L124.216 8.07976H120.939L121.726 1.67139H115.977ZM173.735 1.67139L173.17 6.24365H178.221L176.655 19.0104H182.404L183.971 6.24365H188.136L191.104 1.67139H173.735ZM47.8391 1.67246L45.7132 19.0114H51.6282L52.0304 15.7435H57.5389C59.3383 15.7435 60.9848 14.4101 61.208 12.7761L62.2077 4.64944C62.3078 3.90482 62.1058 3.19654 61.6378 2.6552C61.1052 2.03925 60.2636 1.6862 59.3294 1.6862L47.8391 1.67246ZM67.7825 1.67246C67.2082 1.67246 66.6411 2.04085 66.4633 2.53L60.4489 19.0115H66.3161L67.3031 16.062L72.9051 15.9941L73.2171 19.0115H79.0918L77.26 2.51533C77.2239 2.01994 76.7828 1.67262 76.188 1.67262H67.7832L67.7825 1.67246ZM132.583 1.67246L130.454 19.0114H144.612L145.173 14.4391H136.802L137.065 12.3027H145.435L145.916 8.38529H137.544L137.808 6.24564H146.175L146.741 1.67235L132.583 1.67246ZM151.844 1.67246C150.91 1.67246 149.977 2.02744 149.285 2.64466C148.677 3.18725 148.291 3.89601 148.201 4.64314L147.206 12.7719C147.011 14.4091 148.262 15.7426 150.059 15.7426H155.624L155.223 19.0115H161.019L161.421 15.7426H166.874C168.673 15.7426 170.32 14.4102 170.543 12.7762L171.542 4.65064C171.642 3.90601 171.44 3.1967 170.972 2.65531C170.439 2.03936 169.598 1.68631 168.662 1.68631L166.323 1.67252L151.844 1.67246ZM103.615 1.68413C102.397 1.68413 101.174 2.15268 100.259 2.96939C99.4586 3.68353 98.9546 4.60982 98.837 5.58132L97.6696 15.1056C97.5402 16.0702 97.7518 17.0017 98.3796 17.7271C99.0925 18.5506 100.192 19.023 101.398 19.023H107.65C109.996 19.023 112.209 17.2617 112.498 15.1024L112.828 12.3631H106.993L106.738 14.4348H103.511L104.518 6.24139H107.744L107.532 7.96393H113.371L113.738 4.96249C114.03 2.54282 111.835 1.68402 109.868 1.68402L103.615 1.68413ZM153.758 6.24574H156.79L156.188 11.1438H153.156L153.758 6.24574ZM162.587 6.24574H165.626L165.072 10.7575C165.039 10.9738 164.84 11.1438 164.622 11.1438H161.986L162.587 6.24574ZM53.2541 6.25529H56.2906L55.6718 10.7002C55.6395 10.9469 55.4082 11.1481 55.1571 11.1481H52.5971L53.1374 7.11497L53.2541 6.25529ZM70.7441 6.88357H71.8978L72.4284 11.667H68.9536L70.7441 6.88357ZM197.45 9.86485H200.421L199.952 13.6931C199.901 14.1164 199.541 14.4349 199.115 14.4349H196.889L197.45 9.86485Z" fill="#005597"/>
</svg>
