<svg width="146" height="70" viewBox="0 0 146 70" fill="none" xmlns="http://www.w3.org/2000/svg">
<path d="M38.5437 12.571C37.0605 6.11085 33.353 0.857872 32.8531 0C32.0473 1.20535 29.0973 5.84365 27.5818 10.9905C25.9535 16.7264 25.712 21.8168 26.2761 26.8303C26.8404 31.8433 28.9521 36.9902 28.9521 36.9902C30.0805 39.6956 31.7732 42.5908 32.8695 44.0135C34.4814 41.9214 38.1891 35.6769 39.3498 27.5269C39.9944 22.9983 40.0106 19.031 38.5437 12.571ZM32.8531 42.4043C32.1278 41.0378 30.9994 38.4355 30.8866 34.4151C30.8542 30.5301 32.4179 27.205 32.8693 26.5083C33.2724 27.205 34.6264 30.1003 34.7876 34.0675C34.8843 37.9542 33.5947 41.0105 32.8531 42.4043ZM38.1087 23.534C38.0602 25.9981 37.7702 28.5988 37.3832 30.1536C37.5282 27.4739 37.2059 23.6951 36.5773 20.7451C35.9646 17.7967 34.2236 12.8655 32.8212 10.5866C31.5314 12.7576 29.9516 17.0209 29.1135 20.7176C28.2913 24.4192 28.2591 28.8933 28.2591 30.2355C28.0334 29.1042 27.4852 25.0711 27.6466 21.0137C27.7754 17.6678 28.5492 14.2318 28.9844 12.6513C30.6288 7.37099 32.4827 3.99448 32.821 3.45861C33.1758 3.99448 35.5132 8.14841 36.7224 12.5179C37.9313 16.8857 38.1731 21.0669 38.1087 23.534Z" fill="#0079C1"/>
<path d="M35.3518 45.5184H24.116V53.0455C24.1322 53.0358 24.1482 53.0246 24.1482 53.0149C26.7919 50.3722 31.0962 50.3722 33.7398 53.0149C36.3835 55.6591 36.3835 59.945 33.7398 62.5875C33.7238 62.5989 33.7238 62.6086 33.7076 62.6181V62.6214C33.6915 62.6342 33.6753 62.6439 33.6592 62.6568C31.0316 65.2738 27.5658 66.5836 24.116 66.5836C20.6503 66.5836 17.1843 65.2641 14.5406 62.6245C9.88164 57.9719 9.33369 50.7747 12.8802 45.5184C13.3637 44.8086 13.9119 44.1327 14.5406 43.505C17.1843 40.8641 20.6501 39.5444 24.116 39.5444V21.4419C10.8006 21.4419 0 32.2216 0 45.5184C0 58.8137 10.8006 69.5932 24.116 69.5932C31.0639 69.5932 37.3186 66.661 41.7194 61.9728V45.5184H35.3518ZM55.9698 65.2995C55.9698 66.9844 55.7602 69.598 52.375 69.598H48.3771C45.0079 69.598 44.7984 66.9844 44.7984 65.2995V49.8235C44.7984 48.1369 45.0079 45.5232 48.3771 45.5232H52.375C55.7602 45.5232 55.9698 48.1369 55.9698 49.8235V53.2273H51.1337V49.3021C51.1337 48.8901 50.8273 48.5119 50.3759 48.5119C50.1019 48.5119 49.6184 48.6823 49.6184 49.3021V65.7195C49.6184 66.3375 50.1019 66.5096 50.3759 66.5096C50.8275 66.5096 51.1337 66.1315 51.1337 65.7195V60.4502H50.4083V57.8013H55.9698V65.2995ZM63.2239 60.5532L64.0461 48.5216H64.3201L65.1583 60.5532H63.2239ZM57.8881 69.598H62.6113L63.0465 63.2024H65.3195L65.771 69.598H70.4942L67.9794 45.5232H60.403L57.8881 69.598ZM72.2835 66.5724L76.9101 48.5216H72.767V45.5233H81.8591V48.5152L77.2486 66.5112H82.1491V69.598H72.2835V66.5723M89.242 58.4079V48.5086H89.8546C90.3866 48.5086 90.7574 48.9545 90.7574 49.7126V57.2042C90.7574 57.9606 90.3866 58.4079 89.8546 58.4079H89.242ZM84.4059 69.5982H89.242V61.4128H91.9987C95.3679 61.4128 95.5773 58.799 95.5773 57.114V49.8235C95.5773 48.1369 95.3679 45.5232 91.9987 45.5232H84.4059V69.5982ZM102.88 57.6886V48.5102H103.509C104.024 48.5102 104.395 48.9561 104.395 49.7124V56.4847C104.395 57.2412 104.024 57.6886 103.509 57.6886H102.88ZM109.844 69.598L107.474 60.2089C109.183 59.5216 109.215 57.9382 109.215 57.2863V49.8235C109.215 48.1369 109.022 45.5232 105.636 45.5232H98.0599V69.598H102.88V60.6901H103.234L104.879 69.598H109.844ZM118.775 65.7195C118.775 66.133 118.468 66.5112 118.017 66.5112C117.743 66.5112 117.259 66.339 117.259 65.7195V49.3021C117.259 48.6825 117.743 48.5119 118.017 48.5119C118.468 48.5119 118.775 48.8901 118.775 49.3021V65.7195ZM112.439 65.2995C112.439 66.9844 112.649 69.598 116.034 69.598H120.016C123.401 69.598 123.611 66.9844 123.611 65.2995V49.8235C123.611 48.1369 123.401 45.5232 120.016 45.5232H116.034C112.649 45.5232 112.439 48.1369 112.439 49.8235V65.2995ZM138.748 45.5232H145.018V69.598H140.198V54.4986H140.021L137.539 69.598H133.686L131.203 54.4986H131.026V69.598H126.206V45.5232H132.477L135.604 62.4442L138.748 45.5232Z" fill="#0079C1"/>
</svg>
