<svg width="82" height="112" viewBox="0 0 82 112" fill="none" xmlns="http://www.w3.org/2000/svg">
<path fill-rule="evenodd" clip-rule="evenodd" d="M60.9956 74.8326C61.1277 74.4033 61.2268 74.2052 61.3259 73.6768C61.458 74.5024 61.5901 75.0968 61.8212 75.8234C61.524 75.3941 61.3919 75.1959 60.9956 74.8326ZM60.5003 86.292C59.3444 86.325 58.2546 86.292 58.2216 86.1599C58.0895 85.8297 58.4198 85.4994 58.684 85.1362C58.8491 84.905 59.3444 84.5747 59.3444 84.5747L60.7975 85.1692C60.8635 85.4003 60.8635 85.4664 60.9626 85.6976C60.8305 85.8297 60.6324 86.0939 60.5003 86.292ZM57.8914 70.7707C58.1226 71.7284 58.3537 72.4549 58.684 73.3796C57.9905 73.0824 57.2309 72.8512 56.4383 72.6861C56.7025 72.3889 57.4621 71.7944 57.8914 70.7707ZM52.5085 72.1907C53.6313 71.266 54.1927 70.0772 53.9945 68.1287C54.688 69.5488 55.1834 71.1009 55.5467 72.521C54.7211 72.3889 53.3341 72.2568 52.5085 72.1907ZM41.5775 31.1748C41.5445 31.3069 42.337 31.9674 43.5259 31.9013L41.7756 35.3028L41.0821 31.8683L40.2895 35.3028L38.242 31.8683C38.242 31.8683 39.6951 32.0334 40.4547 31.1748C39.7942 30.6794 37.1523 29.1603 37.1523 29.1603L37.9779 28.4338C37.9779 28.4338 42.7663 28.6319 44.1864 28.4338L44.979 29.1603C44.979 29.1603 41.9407 31.0427 41.5775 31.1748ZM26.4524 72.521C26.8157 71.1009 27.278 69.5488 27.9716 68.1287H28.0046C27.7734 70.0772 28.4339 71.5633 29.6228 72.1907C28.7641 72.2568 27.245 72.3889 26.4524 72.521ZM23.3152 73.3796C23.6124 72.4549 23.8766 71.7284 24.0747 70.7707C24.537 71.7944 25.2966 72.3889 25.5608 72.6861C24.7682 72.8512 24.0087 73.0824 23.3152 73.3796ZM23.8105 86.1599C23.7114 86.4571 19.3192 86.259 18.5597 86.1599C17.7671 86.0608 14.927 85.6976 14.927 85.6976L15.0922 84.6078L16.8755 78.8616C16.8755 78.8616 17.2717 79.7532 17.5029 80.1495C17.8662 80.81 18.3946 81.5696 18.3946 81.5696L17.8332 81.9989C17.8332 81.9989 18.6588 82.3621 19.3853 82.4612C20.2109 82.5603 20.7723 82.4282 20.7723 82.4282L20.343 85.4994L22.6877 84.5747C22.6877 84.5747 23.1831 84.905 23.3482 85.1362C23.6124 85.4994 23.9426 85.8297 23.8105 86.1599ZM20.6732 73.6768C20.7723 74.2052 20.8384 74.4033 20.9704 74.8326C20.6072 75.1959 20.4751 75.3941 20.1779 75.8234C20.376 75.0968 20.5081 74.5024 20.6732 73.6768ZM81.9329 76.9792C81.9329 68.1287 80.0175 63.1091 78.1351 59.3443C77.7719 56.4052 76.7812 53.6642 74.8658 50.3288C74.8988 50.3288 75.196 50.2957 75.2951 50.2297C75.4602 50.1636 75.5923 50.0976 75.5923 49.7674C74.7667 44.7477 67.3363 40.4215 63.5715 39.4969C62.6469 39.2987 61.491 39.4308 60.8966 39.5629C60.3021 39.695 59.5096 40.0913 58.9482 40.5536C57.1979 41.9737 57.396 43.9221 56.9667 44.9458C56.5374 45.9696 55.6127 47.0594 54.8201 47.5217C54.4899 47.7199 54.1927 47.852 53.9615 47.918C53.6973 47.9841 53.4992 48.0171 53.301 48.0171C53.0038 48.0171 52.6736 47.918 52.5415 47.852C52.5415 47.852 54.3578 47.4226 54.8532 46.6631C54.8532 46.6631 52.7066 46.498 51.1545 44.5826C49.8005 42.9314 49.8665 41.016 49.9656 40.0583C50.0316 39.0345 50.527 37.4163 51.0554 36.4917C51.8149 35.7651 52.9708 35.3358 54.2257 35.3358C55.7448 35.3358 56.5374 36.0624 57.363 38.1429L57.5611 38.6382L57.8253 38.1429C58.4198 36.954 58.5849 35.7651 58.3207 34.5102C62.1515 34.4442 64.8925 32.9581 66.2795 30.1841L66.6097 29.5566L65.9493 29.8538C64.3971 30.6464 62.9771 31.1087 61.8543 31.505C60.4012 31.472 57.8584 31.505 56.9007 31.3729C57.1649 31.2739 57.396 31.1748 57.6272 31.0427C58.3537 30.7125 59.0802 30.3492 60.137 30.3162C60.5333 30.3162 61.0617 30.4152 61.2929 30.6134C61.5571 30.8445 61.7552 31.2078 61.8543 31.505C62.911 29.5566 62.6799 26.7826 60.5994 26.0561C59.1463 25.5607 57.396 25.6928 57.396 25.6928C57.2639 24.8011 55.976 23.6783 55.3485 23.6783C55.1504 23.7113 54.3578 24.0086 53.3671 24.4049L48.5786 26.3533L48.5456 25.5277C50.2298 23.4141 51.947 20.8713 51.947 17.8991C51.9801 17.3377 52.0131 16.8093 51.9801 16.3139C51.9801 16.2149 51.9801 16.0828 51.947 15.9837C51.848 14.5306 51.3856 13.4078 50.5931 12.5162C49.3381 11.1622 47.3567 10.5347 44.5166 10.5347H44.3185L43.1296 14.6627L43.0966 14.7618L41.7426 19.8475L43.9552 8.0249H38.0439L40.2565 19.8475L38.9025 14.7618L38.8695 14.6627L37.6806 10.5347H37.4825C34.6424 10.5347 32.661 11.1622 31.4391 12.5162C30.6135 13.4078 30.1842 14.5306 30.0521 15.9837C30.0521 16.0828 30.019 16.2149 30.019 16.3139C29.986 16.8093 29.986 17.3047 29.986 17.8991C29.986 20.9043 31.7693 23.4141 33.4536 25.5277V26.3202L28.566 24.3388C27.6083 23.9425 26.8157 23.6123 26.4524 23.6453C25.5278 23.6783 24.7352 24.8011 24.6031 25.6928C24.6031 25.6928 22.9849 25.4286 21.4328 26.0561C19.6495 26.7826 19.2202 28.3017 19.4844 29.9859C19.5504 30.4483 19.7816 30.9436 20.2109 31.505C20.2769 31.3729 20.4421 31.1418 20.4751 31.0757C20.5081 31.0097 20.7063 30.7455 20.8053 30.6464C21.0035 30.4483 21.3667 30.3162 21.796 30.3162C21.8291 30.3162 21.8291 30.3162 21.8621 30.3162C22.9519 30.3492 23.6454 30.7125 24.405 31.0427C24.6361 31.1748 24.8673 31.2739 25.0985 31.3729C24.1408 31.505 21.664 31.505 20.2109 31.505C19.1211 31.1418 17.602 30.6464 16.0499 29.8538L15.4224 29.5566L15.7526 30.1841C17.1397 32.9581 19.8807 34.4442 23.6784 34.5102C23.4142 35.7651 23.6124 36.954 24.2068 38.1429L24.438 38.6382L24.6361 38.1429C25.4947 36.0624 26.2873 35.3689 27.7734 35.3358H27.8064C29.0613 35.3358 30.2172 35.7651 30.9767 36.4917C31.4721 37.4163 31.9675 39.0345 32.0665 40.0583C32.1326 41.049 32.0996 42.9974 30.9107 44.5495C29.3586 46.564 27.179 46.6631 27.179 46.6631C27.6413 47.4226 29.4576 47.852 29.4576 47.852C29.3255 47.918 28.9953 48.0171 28.6981 48.0171C28.533 48.0171 28.3018 47.9841 28.0706 47.918C27.8064 47.852 27.5422 47.7199 27.179 47.5217C26.4194 47.0594 25.4617 45.9696 25.0324 44.9458C24.6031 43.9221 24.8012 41.9737 23.084 40.5536C22.5226 40.0913 21.73 39.695 21.1356 39.5629C20.5411 39.4308 19.3853 39.2987 18.4276 39.4969C14.6959 40.4215 7.26545 44.7477 6.40682 49.7674C6.40682 50.0976 6.57194 50.1636 6.73706 50.2297C6.83614 50.2957 7.13335 50.3288 7.13335 50.3288C5.25098 53.6642 4.26026 56.4052 3.86397 59.3443C1.98159 63.1091 0.0661973 68.1287 0.0661973 76.9792C-0.39614 84.1785 1.65135 90.8823 3.46768 95.935L3.7649 96.7606L5.48215 88.6367L7.59569 92.8308L8.94968 86.4901L9.27992 84.872L10.8981 87.9762L11.3604 86.1269C11.7567 86.4901 12.4833 86.7874 12.4833 86.7874C12.4833 86.7874 12.2521 87.5469 12.2851 88.0093C12.2851 88.4716 12.6814 88.9339 12.6814 88.9339C12.6814 88.9339 12.2191 89.5614 12.3181 89.9907C12.4502 90.42 13.1107 90.6512 13.1107 90.6512C13.1107 90.6512 12.7805 91.2126 12.8135 91.741C12.8795 92.4015 13.6721 92.6987 13.6721 92.6987C13.6721 92.6987 13.7712 93.128 14.1675 93.3922C14.5638 93.6233 16.182 93.5903 16.182 93.5903C16.182 93.5903 16.3801 95.4066 16.9085 96.2322C17.5359 97.223 19.5834 98.0155 19.7155 97.9165C19.8807 97.8504 20.4751 97.5532 20.6402 97.4872C20.8053 97.3881 20.9704 95.2746 20.5742 94.3169C20.343 93.7554 18.7578 92.4345 18.7578 92.4345C18.7578 92.4345 18.989 91.8731 18.989 91.4768C19.022 90.6842 18.7578 90.0567 18.7578 90.0567C19.9467 88.9339 21.5649 88.2074 22.3244 88.1413C23.117 88.0753 26.5845 88.6367 27.146 88.7358C27.7074 88.8349 28.3678 87.8772 28.1697 87.2167C27.9385 86.5562 27.6083 85.3013 27.6083 85.3013C27.4432 84.2445 27.5753 83.4189 28.0706 82.8575C28.632 82.197 29.6888 81.8668 31.1749 81.8668C31.6703 81.8668 32.1326 81.9989 32.628 82.131C33.2554 82.2961 33.7508 82.4612 34.4773 82.3952C34.6094 82.3621 34.7745 82.3621 34.9727 82.2961C35.6662 82.131 36.1285 81.6356 36.5578 81.0081C36.2936 82.3952 32.9582 86.8204 30.6795 86.8204C30.6795 86.8204 30.1181 87.2167 29.1274 88.2074C28.3348 89.033 27.4762 89.9247 26.4855 90.1558C25.5938 90.354 24.6031 89.4953 24.6031 89.4953C24.6031 89.4953 23.9756 90.387 23.9756 91.9721C23.9756 93.4252 25.4287 94.2838 26.2543 94.7462C26.0892 97.0248 26.5185 98.7421 27.5092 99.8319C28.2688 100.657 29.3255 101.087 30.5805 101.12C31.6703 103.894 33.2554 106.503 37.4825 106.998C37.7137 107.262 38.242 108.088 38.8035 108.748C39.3649 109.442 39.8602 109.937 40.2235 110.301C40.7189 110.829 40.983 111.027 41.0161 111.027C41.0161 111.027 41.3133 110.829 41.8086 110.301C42.1719 109.937 42.6343 109.442 43.1957 108.748C43.7901 108.088 44.3185 107.262 44.5496 106.998C48.7437 106.503 50.3619 103.894 51.4187 101.12C52.6736 101.087 53.7303 100.657 54.4899 99.8319C55.5136 98.7421 55.943 97.0248 55.7448 94.7462C56.5704 94.2838 58.0565 93.4252 58.0565 91.9721C58.0565 90.387 57.396 89.4953 57.396 89.4953C57.396 89.4953 56.4053 90.354 55.5136 90.1558C54.5229 89.9247 53.6973 89.033 52.8717 88.2074C51.914 87.2167 51.3196 86.8204 51.3196 86.8204C49.0409 86.8204 45.7385 82.3952 45.4743 81.0081C45.8706 81.6356 46.333 82.131 47.0265 82.2961C47.1916 82.3291 47.3567 82.3621 47.4888 82.3952C48.2153 82.4612 48.6777 82.2961 49.3051 82.131C49.8335 81.9989 50.2958 81.8668 50.7912 81.8668C52.2773 81.8668 53.3341 82.197 53.8955 82.8575C54.3578 83.4189 54.5229 84.2445 54.3578 85.3013C54.3578 85.3013 54.0276 86.5562 53.7964 87.2167C53.5652 87.8772 54.2587 88.8349 54.8201 88.7358C55.3815 88.6367 58.8491 88.0753 59.6086 88.1413C60.2691 88.2074 65.9823 90.6842 67.3032 90.5521C68.0958 90.453 69.4498 90.0567 70.3415 89.4953C71.6294 88.6697 72.0917 87.1506 72.0917 87.1506C72.389 86.8204 72.7852 86.0608 72.8843 85.5985L73.0825 86.4901L74.4034 92.8308L76.55 88.6367L78.2672 96.7606L78.5645 95.935C80.3808 90.8823 82.3953 84.1785 81.9329 76.9792Z" fill="#665F5F"/>
<path fill-rule="evenodd" clip-rule="evenodd" d="M38.0766 7.52949H43.9879L42.8651 5.51502L44.8135 6.67087V0.825602L42.8651 1.98145L43.9879 0H38.1096L39.1994 1.98145L37.251 0.825602V6.67087L39.1994 5.51502L38.0766 7.52949Z" fill="#665F5F"/>
<path fill-rule="evenodd" clip-rule="evenodd" d="M39.8937 44.6486V44.8467L38.1104 56.5703C38.1434 56.5703 38.2094 56.5373 38.2424 56.5373V56.5042L38.3745 56.4712C40.0918 55.9759 41.8751 55.9759 43.5593 56.4712C43.6914 56.5042 43.7905 56.5373 43.9226 56.5703L41.0165 37.3833L39.8937 44.6486Z" fill="white"/>
<path fill-rule="evenodd" clip-rule="evenodd" d="M45.1113 57.0657C46.9937 58.0564 48.4798 59.5756 49.3384 61.3589L53.8627 52.7065C50.9566 54.1596 46.3993 56.4052 45.1113 57.0657Z" fill="white"/>
<path fill-rule="evenodd" clip-rule="evenodd" d="M49.668 62.3496C49.9982 63.3403 50.1633 64.3641 50.1633 65.2227C50.1633 66.3125 49.9982 67.3362 49.668 68.2609C51.5173 67.9307 60.2027 66.4116 65.7177 65.4539C60.1696 64.3641 51.4843 62.6799 49.668 62.3496Z" fill="white"/>
<path fill-rule="evenodd" clip-rule="evenodd" d="M16.3145 65.4208C21.8295 66.4116 30.4818 67.9307 32.3311 68.2609C32.0009 67.3362 31.8358 66.3125 31.8358 65.2227C31.8358 64.3641 32.0339 63.3403 32.3311 62.3496C30.5148 62.6799 21.8295 64.3641 16.3145 65.4208Z" fill="white"/>
<path fill-rule="evenodd" clip-rule="evenodd" d="M28.1367 52.7065L32.694 61.3589C33.5196 59.5756 35.0388 58.0564 36.9211 57.0657C35.5671 56.4052 30.6796 53.9945 28.1367 52.7065Z" fill="white"/>
<path fill-rule="evenodd" clip-rule="evenodd" d="M32.7931 69.3179C32.5289 69.8463 31.8684 71.1012 30.3163 74.1064L28.1367 77.9702L37.0532 73.4789C35.8974 72.9175 34.8076 72.0589 33.949 71.0351C33.4866 70.5067 33.1234 69.9453 32.7931 69.3179Z" fill="white"/>
<path fill-rule="evenodd" clip-rule="evenodd" d="M34.3452 69.3178L41.0161 57.6603L47.6209 69.3178H34.3452ZM47.3237 70.1104C48.3804 68.7564 49.0079 67.0721 49.0079 65.2228C49.0079 61.6232 46.5971 58.5519 43.2947 57.5612C42.5682 57.3631 41.7756 57.231 40.983 57.231C40.2235 57.231 39.4639 57.3631 38.7374 57.5612C35.402 58.5519 32.9912 61.6232 32.9912 65.2228C32.9912 67.0721 33.6187 68.7564 34.7085 70.1104C36.1615 71.9927 38.4402 73.2146 40.983 73.2146C43.5589 73.2146 45.8376 71.9927 47.3237 70.1104Z" fill="#FF6600"/>
<path fill-rule="evenodd" clip-rule="evenodd" d="M41.0164 59.8066L36.2939 68.2938H45.7058L41.0164 59.8066Z" fill="#0B4DA0"/>
<path fill-rule="evenodd" clip-rule="evenodd" d="M38.0771 73.875L41.0163 93.9206L43.8894 73.875C42.007 74.5025 39.9265 74.5025 38.0771 73.875Z" fill="white"/>
<path fill-rule="evenodd" clip-rule="evenodd" d="M45.0781 73.3798L48.0173 74.965L53.7965 77.9702L51.6499 74.1064C51.0555 72.9505 50.4611 71.7947 49.9987 70.87C49.6685 70.2425 49.3713 69.6811 49.2061 69.3179C48.8759 69.9453 48.5126 70.5067 48.0833 71.0351C47.2577 72.0258 46.234 72.8184 45.0781 73.3798Z" fill="white"/>
<path fill-rule="evenodd" clip-rule="evenodd" d="M34.6426 21.1357C34.1473 21.1357 33.751 21.532 33.751 22.0274C33.751 22.5228 34.1473 22.919 34.6426 22.919C35.138 22.919 35.5673 22.5228 35.5673 22.0274C35.5673 21.532 35.138 21.1357 34.6426 21.1357Z" fill="#FFDB00"/>
<path fill-rule="evenodd" clip-rule="evenodd" d="M40.752 18.6255L41.0161 21.7628L41.2473 18.6255H40.752Z" fill="#FFDB00"/>
<path fill-rule="evenodd" clip-rule="evenodd" d="M40.7853 17.9323H41.2477L41.5779 16.6444L41.2477 15.3564H40.7853L40.4551 16.6444L40.7853 17.9323Z" fill="#FFDB00"/>
<path fill-rule="evenodd" clip-rule="evenodd" d="M47.4888 24.9991C48.0832 24.9991 48.5455 24.5368 48.5455 23.9754C48.5455 23.6782 48.3804 23.414 48.1823 23.2158C47.9511 23.3809 47.6539 23.48 47.3567 23.48C47.1585 23.48 46.9274 23.414 46.7292 23.3149C46.5641 23.513 46.498 23.7442 46.498 23.9754C46.498 24.5368 46.9274 24.9991 47.4888 24.9991Z" fill="#FFDB00"/>
<path fill-rule="evenodd" clip-rule="evenodd" d="M40.2892 23.216C40.0911 23.4472 39.959 23.7113 39.959 24.0086C39.959 24.603 40.4874 25.0984 41.0818 25.0984C41.7093 25.0984 42.2046 24.603 42.2046 24.0086C42.2046 23.3811 41.7093 22.8857 41.0818 22.8857C40.7846 22.8857 40.4874 23.0178 40.2892 23.216Z" fill="#FFDB00"/>
<path fill-rule="evenodd" clip-rule="evenodd" d="M35.9307 27.1791L36.393 27.3772C37.714 27.5423 39.0349 27.5423 40.8843 27.5423H41.1485C42.9648 27.5423 44.3848 27.5423 45.8049 27.3442L46.1681 27.1791C44.4839 26.9809 42.7997 26.8818 41.1154 26.8818H40.9503C39.2991 26.8818 37.5819 26.9809 35.9307 27.1791Z" fill="#FFDB00"/>
<path fill-rule="evenodd" clip-rule="evenodd" d="M44.0869 23.9756C44.0869 24.471 44.4832 24.9003 44.9786 24.9003C45.4739 24.9003 45.9032 24.471 45.9032 23.9756C45.9032 23.4803 45.4739 23.084 44.9786 23.084C44.4832 23.084 44.0869 23.4803 44.0869 23.9756Z" fill="#FFDB00"/>
<path fill-rule="evenodd" clip-rule="evenodd" d="M34.6099 24.8672C35.1713 24.9002 35.6666 24.4709 35.6666 23.9095C35.6997 23.6453 35.6006 23.4141 35.4355 23.249C35.2043 23.3811 34.9401 23.4802 34.6429 23.4802C34.3457 23.4802 34.0815 23.3811 33.8503 23.249C33.7182 23.3811 33.6522 23.6123 33.6191 23.8435C33.6191 24.4049 34.0485 24.8672 34.6099 24.8672Z" fill="#FFDB00"/>
<path fill-rule="evenodd" clip-rule="evenodd" d="M45.5404 22.4897C45.6725 22.5558 45.8046 22.6218 45.9037 22.6879C45.8707 22.6218 45.8707 22.5558 45.8376 22.4897C45.7386 22.4897 45.6395 22.4897 45.5404 22.4897ZM36.0295 22.853C36.0625 22.886 36.0955 22.9521 36.1285 22.9851C36.2937 22.787 36.4918 22.6218 36.723 22.5228C36.5579 22.4897 36.3597 22.4897 36.1946 22.4897C36.1616 22.6218 36.0955 22.7209 36.0295 22.853ZM41.1482 26.0894C43.2948 26.0894 45.4744 26.2545 47.5879 26.5847L47.9181 26.4526V26.3866C47.9181 26.1554 47.9181 25.8252 47.9181 25.627C47.2907 25.7922 46.5972 25.561 46.1679 25.0656C45.8707 25.3959 45.4413 25.561 44.979 25.561C44.0874 25.561 43.3938 24.8675 43.3938 23.9758C43.3938 23.5135 43.592 23.1172 43.8892 22.82C43.5259 22.9521 43.1297 23.1172 42.7664 23.3153C42.8655 23.5465 42.8985 23.7777 42.8985 24.0089C42.8985 24.9996 42.0729 25.7922 41.0822 25.7922C40.0914 25.7922 39.2658 24.9996 39.2658 24.0089C39.2658 23.8107 39.3319 23.5795 39.3979 23.4144C39.1337 23.2493 38.8695 23.1172 38.6054 23.0181C38.8365 23.2823 38.9356 23.6126 38.9356 23.9758C38.9356 24.8675 38.2421 25.561 37.3504 25.561C36.8221 25.561 36.3267 25.2968 36.0295 24.8675C35.6992 25.3298 35.1708 25.594 34.6094 25.561C34.3783 25.561 34.2132 25.528 34.0811 25.4619V26.4196L34.4773 26.5847C36.5909 26.2545 38.8365 26.0894 41.0161 26.0894H41.0491H41.1482Z" fill="#FFDB00"/>
<path fill-rule="evenodd" clip-rule="evenodd" d="M38.2421 23.9756C38.2421 23.4803 37.8458 23.084 37.3505 23.084C36.8551 23.084 36.4258 23.4803 36.4258 23.9756C36.4258 24.471 36.8551 24.9003 37.3505 24.9003C37.8458 24.9003 38.2421 24.471 38.2421 23.9756Z" fill="#FFDB00"/>
<path fill-rule="evenodd" clip-rule="evenodd" d="M32.793 16.2481C32.9911 16.3142 33.2223 16.3802 33.4534 16.4463L33.8167 16.083L33.2223 14.729L32.4297 15.4555L32.793 16.2481Z" fill="#FFDB00"/>
<path fill-rule="evenodd" clip-rule="evenodd" d="M47.0928 14.9601L47.7533 15.6206L48.3147 14.2666L47.6212 13.6392L47.0928 14.9601Z" fill="#FFDB00"/>
<path fill-rule="evenodd" clip-rule="evenodd" d="M48.2158 16.0825L48.5791 16.4458C48.8103 16.3797 49.0084 16.3137 49.2396 16.2476L49.5698 15.455L48.7772 14.7285L48.2158 16.0825Z" fill="#FFDB00"/>
<path fill-rule="evenodd" clip-rule="evenodd" d="M33.7178 14.2666L34.2792 15.6206L34.9397 14.9601L34.3783 13.6392L33.7178 14.2666Z" fill="#FFDB00"/>
<path fill-rule="evenodd" clip-rule="evenodd" d="M34.8732 17.0735H34.9062C35.0053 17.1065 35.1044 17.1726 35.2035 17.2056L35.6988 16.8093L35.2035 15.5874L34.543 16.2479L34.8732 17.0735Z" fill="#FFDB00"/>
<path fill-rule="evenodd" clip-rule="evenodd" d="M34.1804 16.8093L34.0813 16.5781L33.9492 16.7102C34.0483 16.7432 34.1143 16.7763 34.1804 16.8093Z" fill="#FFDB00"/>
<path fill-rule="evenodd" clip-rule="evenodd" d="M47.8525 16.8093C47.9186 16.7763 47.9846 16.7432 48.0507 16.7102L47.9186 16.5781L47.8525 16.8093Z" fill="#FFDB00"/>
<path fill-rule="evenodd" clip-rule="evenodd" d="M44.5498 17.9321L44.9791 18.3614C45.0121 18.3614 45.0121 18.3614 45.0121 18.3614L45.6066 16.9744L45.0452 16.479L44.5498 17.9321Z" fill="#FFDB00"/>
<path fill-rule="evenodd" clip-rule="evenodd" d="M44.0541 20.0127H44.5494C44.5824 20.0127 47.6537 20.1118 48.2481 20.0127C48.4132 19.9797 48.5453 19.9467 48.6444 19.9137L46.0025 19.3522L50.0975 16.7764C48.083 17.1396 46.0355 18.2625 44.0541 20.0127ZM41.7754 22.3574C41.9735 22.4235 42.1387 22.5556 42.3038 22.6877C43.3936 22.0602 44.5164 21.763 45.8043 21.697C45.8374 21.5649 45.9034 21.3997 45.9694 21.2676L44.0541 20.0127C43.2615 20.7062 42.5019 21.4658 41.7754 22.3574Z" fill="#FFDB00"/>
<path fill-rule="evenodd" clip-rule="evenodd" d="M49.8662 16.1819C50.0313 16.1489 50.1965 16.1159 50.3616 16.0829L50.0313 15.7856L49.8662 16.1819Z" fill="#FFDB00"/>
<path fill-rule="evenodd" clip-rule="evenodd" d="M44.0869 19.1544C44.252 18.9893 44.4172 18.8572 44.5823 18.7251L44.3181 18.4609L44.0869 19.1544Z" fill="#FFDB00"/>
<path fill-rule="evenodd" clip-rule="evenodd" d="M47.3565 22.919C47.8849 22.919 48.2812 22.5228 48.2812 22.0274C48.2812 21.532 47.8849 21.1357 47.3565 21.1357C46.8611 21.1357 46.4648 21.532 46.4648 22.0274C46.4648 22.5228 46.8611 22.919 47.3565 22.919Z" fill="#FFDB00"/>
<path fill-rule="evenodd" clip-rule="evenodd" d="M45.8047 17.8661C46.0028 17.767 46.168 17.6349 46.3331 17.5359L46.0359 17.3047L45.8047 17.8661Z" fill="#FFDB00"/>
<path fill-rule="evenodd" clip-rule="evenodd" d="M45.2432 15.8514L45.8376 16.3798L46.366 15.1248L45.7055 14.4644L45.2432 15.8514Z" fill="#FFDB00"/>
<path fill-rule="evenodd" clip-rule="evenodd" d="M46.333 16.8093L46.8284 17.2386C46.8944 17.1726 46.9935 17.1395 47.0926 17.0735H47.1256L47.4889 16.2479L46.8284 15.5874L46.333 16.8093Z" fill="#FFDB00"/>
<path fill-rule="evenodd" clip-rule="evenodd" d="M61.8216 63.6706L64.8598 64.232C64.3975 62.0194 63.803 60.2691 63.3407 59.8068C62.7132 59.7737 62.0858 59.6747 61.5904 59.3774L61.5574 59.5426H61.3593C61.1611 59.5426 60.996 59.5426 60.7979 59.5095C61.2272 61.0617 61.5904 62.5147 61.8216 63.6706Z" fill="#FFDB00"/>
<path fill-rule="evenodd" clip-rule="evenodd" d="M58.4863 70.2755C58.7175 71.4644 59.6091 74.0733 60.0715 75.4603C60.5338 74.5687 60.831 73.2807 61.0292 72.1909C61.1283 71.7616 61.2934 68.7234 61.3264 67.2373L58.7175 67.7327C58.6514 68.6243 58.5194 70.0444 58.4863 70.2755Z" fill="#FFDB00"/>
<path fill-rule="evenodd" clip-rule="evenodd" d="M62.2179 67.0723C62.251 68.3272 62.1519 69.7473 62.0528 71.0022C62.0198 71.1673 62.0198 71.3985 61.9868 71.6297C61.9207 72.158 61.8547 72.7855 61.8877 73.0167C62.1189 74.6679 62.4491 76.0549 63.0105 77.8382C63.0766 77.9703 63.1096 78.1024 63.1426 78.2675C63.704 77.8712 64.2654 77.607 64.8929 77.3758C64.992 77.0456 65.091 76.6493 65.1901 76.22C65.7185 73.5451 65.7515 70.1766 65.2892 66.7091L65.2561 66.5439L62.2179 67.0723Z" fill="#FFDB00"/>
<path fill-rule="evenodd" clip-rule="evenodd" d="M55.249 73.3799C56.8012 74.1064 58.1221 74.899 59.2449 75.7906C59.0468 75.2292 58.8156 74.6018 58.7496 74.3706C57.7919 73.9083 56.6691 73.6111 55.249 73.3799Z" fill="#FFDB00"/>
<path fill-rule="evenodd" clip-rule="evenodd" d="M50.4941 69.2183L51.8812 71.9924C52.6737 71.5961 53.4663 70.5393 53.3342 68.6899L50.4941 69.2183Z" fill="#FFDB00"/>
<path fill-rule="evenodd" clip-rule="evenodd" d="M54.8203 68.4258C55.4478 69.8129 55.8771 71.2659 56.1413 72.3557C56.5706 71.8934 57.2311 70.9687 57.5943 70.1101C57.6604 69.4826 57.7264 68.657 57.7925 67.8975L54.8203 68.4258Z" fill="#FFDB00"/>
<path fill-rule="evenodd" clip-rule="evenodd" d="M65.8167 64.4302L69.02 65.0246C68.6568 63.5385 67.9963 61.1608 67.0386 59.7407C66.279 59.6417 65.5525 59.4435 64.826 59.1133C64.859 59.3444 64.859 59.5756 64.859 59.6086L64.892 59.8068H64.6609C64.6609 59.8068 64.5618 59.8068 64.4297 59.8068C64.925 60.7315 65.4204 62.3827 65.8167 64.4302Z" fill="#FFDB00"/>
<path fill-rule="evenodd" clip-rule="evenodd" d="M66.1807 66.3788C67.9309 68.3272 69.1859 68.5914 69.6482 68.6244C69.6152 68.2281 69.4831 67.4356 69.417 67.1053C69.417 67.1053 69.318 66.5109 69.1859 65.8174L66.1807 66.3788Z" fill="#FFDB00"/>
<path fill-rule="evenodd" clip-rule="evenodd" d="M66.3453 67.7324C66.6425 70.8037 66.6095 73.5116 66.1472 75.9884C66.0811 76.3847 66.0151 76.781 65.916 77.1443C66.1142 77.1113 66.2793 77.1113 66.4444 77.0782L66.7746 75.7573L66.8407 75.6582L66.4444 75.8233L67.1379 72.0586L67.4681 72.3558L67.3361 71.9595L69.5487 72.3558C69.5487 72.2237 69.5487 72.1246 69.5487 71.9925C69.5156 70.9027 69.4496 70.3083 69.3835 69.5818V69.4827C68.3928 69.3176 67.6663 68.9213 66.3453 67.7324Z" fill="#FFDB00"/>
<path fill-rule="evenodd" clip-rule="evenodd" d="M58.5847 63.043L60.8634 63.4723C60.5992 62.3495 60.269 60.9294 59.8397 59.4103C59.3773 59.3443 59.0141 59.2452 58.6838 59.0801V59.3112L58.4857 59.3443C58.3536 59.3443 58.0564 59.3773 57.8252 59.4103C58.1554 60.4671 58.4196 61.755 58.5847 63.043Z" fill="#FFDB00"/>
<path fill-rule="evenodd" clip-rule="evenodd" d="M50.4941 61.5237L52.9049 61.9861C52.8719 61.2595 52.7728 60.1367 52.5416 59.3772C52.3105 59.3441 51.9802 59.2451 51.7491 59.146L50.4941 61.5237Z" fill="#FFDB00"/>
<path fill-rule="evenodd" clip-rule="evenodd" d="M53.8291 62.1513L55.084 62.3825C54.9849 61.5239 54.7868 59.9387 54.6877 59.3443C54.4235 59.3112 54.1924 59.2452 53.8951 59.0801V59.1792L53.7961 59.2452C53.697 59.3112 53.5979 59.3443 53.4658 59.3443C53.697 60.2689 53.7961 61.4248 53.8291 62.1513Z" fill="#FFDB00"/>
<path fill-rule="evenodd" clip-rule="evenodd" d="M35.666 17.5359C35.8642 17.6349 36.0293 17.767 36.2274 17.8661L35.9632 17.3047L35.666 17.5359Z" fill="#FFDB00"/>
<path fill-rule="evenodd" clip-rule="evenodd" d="M31.6699 16.0829C31.835 16.1159 32.0002 16.1489 32.1323 16.1819L31.9671 15.7856L31.6699 16.0829Z" fill="#FFDB00"/>
<path fill-rule="evenodd" clip-rule="evenodd" d="M19.1875 81.6026C19.2535 81.6357 19.3526 81.6357 19.4517 81.6687C19.7489 81.7347 20.4754 81.7347 20.8717 81.6026C21.202 81.4705 21.6973 81.2063 21.9615 80.9091C22.6881 80.1826 23.1174 79.324 23.5797 78.4323C23.7778 78.1021 23.943 77.7718 24.1411 77.4416C24.6365 76.583 25.1318 75.7243 25.7923 74.8657C23.6788 75.9885 22.0606 77.1774 21.0699 78.9937C21.0038 79.0928 20.9378 79.2249 20.8717 79.357C20.6736 79.7203 20.4094 80.2156 20.2112 80.5128C20.0131 80.8101 19.4847 81.3054 19.1875 81.6026Z" fill="#FFDB00"/>
<path fill-rule="evenodd" clip-rule="evenodd" d="M23.2817 74.3706L23.2156 74.5688C23.1166 74.8329 22.9514 75.2953 22.8193 75.6916C23.744 74.932 25.065 74.1394 26.7492 73.3799C25.3292 73.6111 24.2063 73.9413 23.2817 74.3706Z" fill="#FFDB00"/>
<path fill-rule="evenodd" clip-rule="evenodd" d="M20.7061 67.2373C20.7061 68.6573 20.9042 71.7616 20.9702 72.1909C21.2014 73.2807 21.4986 74.5687 21.9279 75.4603C22.7866 73.0495 23.348 71.1672 23.5461 70.2755C23.5131 70.0444 23.381 68.6243 23.315 67.7327L20.7061 67.2373Z" fill="#FFDB00"/>
<path fill-rule="evenodd" clip-rule="evenodd" d="M28.8304 68.9541C28.7974 70.4072 29.3918 71.2988 30.0523 71.6951L31.2081 69.3834L28.8304 68.9541Z" fill="#FFDB00"/>
<path fill-rule="evenodd" clip-rule="evenodd" d="M21.1025 75.9224C20.5081 76.5498 20.0788 77.3754 19.7155 78.4982C19.6495 78.7624 19.3192 79.7532 19.1211 80.4467C19.2532 80.2815 19.4183 80.1164 19.5174 79.9513C19.6165 79.7532 19.8146 79.4229 19.9797 79.0927C20.1118 78.8285 20.2439 78.5973 20.343 78.4322C20.7393 77.7387 21.0035 77.3754 21.5649 76.814C21.4328 76.6159 21.2346 76.2856 21.1025 75.9224Z" fill="#FFDB00"/>
<path fill-rule="evenodd" clip-rule="evenodd" d="M25.1318 59.4766C24.8346 60.4343 24.5704 61.6562 24.4053 62.8781L26.0235 62.5809C26.0565 61.9534 26.2216 60.8966 26.3207 60.071C26.3867 59.8068 26.4197 59.5757 26.4197 59.3775C26.3207 59.3775 26.1556 59.3445 25.9904 59.3115L25.8253 59.2785V59.2124C25.6272 59.3115 25.396 59.4105 25.1318 59.4766Z" fill="#FFDB00"/>
<path fill-rule="evenodd" clip-rule="evenodd" d="M29.4902 59.3777C29.2921 60.1042 29.193 61.161 29.127 61.9866L31.5047 61.5242L30.2828 59.1465C30.0186 59.2456 29.7214 59.3446 29.4902 59.3777Z" fill="#FFDB00"/>
<path fill-rule="evenodd" clip-rule="evenodd" d="M24.4384 70.1101C24.7686 70.9687 25.4291 71.8934 25.8914 72.3557C26.1556 71.2659 26.5849 69.7798 27.2124 68.4258L24.2402 67.8975C24.2733 68.624 24.3393 69.4496 24.4384 70.1101Z" fill="#FFDB00"/>
<path fill-rule="evenodd" clip-rule="evenodd" d="M22.1925 59.4103C21.7302 61.0945 21.3669 62.4485 21.1357 63.4723L23.4474 63.043C23.6125 61.7881 23.8767 60.5001 24.207 59.4103C23.9758 59.3773 23.6786 59.3443 23.5465 59.3443L23.3153 59.3112L23.3484 59.0801C23.0181 59.2452 22.6218 59.3443 22.1925 59.4103Z" fill="#FFDB00"/>
<path fill-rule="evenodd" clip-rule="evenodd" d="M56.2402 74.8657C56.9007 75.7243 57.4291 76.616 57.8914 77.4416C58.0896 77.8049 58.2877 78.1681 58.4859 78.5314C58.9152 79.39 59.3115 80.2156 60.005 80.9091C60.1701 81.1073 60.4673 81.3054 60.7315 81.4375C60.8966 81.0412 61.1938 80.4798 61.458 80.0505C61.3259 79.8193 61.1938 79.5551 61.0948 79.357C61.0287 79.2249 60.9627 79.0928 60.8966 78.9937C59.8729 77.1444 58.2877 75.9555 56.2402 74.8657Z" fill="#FFDB00"/>
<path fill-rule="evenodd" clip-rule="evenodd" d="M64.8266 87.1505C65.4211 87.0514 65.4541 86.0937 65.0908 85.3672C64.8266 84.8388 64.0671 83.716 64.0671 83.716L61.161 83.0225C61.161 83.1876 61.1279 83.3857 61.1279 83.5508C61.1279 84.1123 61.26 84.8388 61.4251 85.3672C62.647 85.3341 64.2652 87.2826 64.8266 87.1505Z" fill="#FFDB00"/>
<path fill-rule="evenodd" clip-rule="evenodd" d="M68.195 72.7192L68.6573 74.1063L67.5675 73.1816L67.2373 74.8988L68.5913 74.4365L67.6666 75.6254L69.4499 75.9556L69.0206 74.5356L70.1104 75.4272L70.4076 73.71L69.0867 74.2053L69.9783 73.0495L68.195 72.7192Z" fill="#FFDB00"/>
<path fill-rule="evenodd" clip-rule="evenodd" d="M72.4551 59.8726C74.4695 62.7457 75.1961 65.7509 75.6584 67.7984C75.7575 68.1286 75.8235 68.4588 75.8896 68.723C76.0877 69.4496 76.517 69.8459 76.9464 70.2421L77.1115 70.3742C78.1352 71.398 79.4892 71.9264 80.4469 72.1906C80.612 72.2236 80.8432 72.2566 81.0413 72.2896C80.8432 70.011 80.4799 67.9305 79.9515 65.949L79.8855 65.7509C79.8525 65.6188 79.8194 65.5197 79.7864 65.4206C79.3571 63.8685 78.7957 62.4154 78.1022 60.8963C78.0361 60.7972 77.9041 60.5331 77.5738 59.9056C77.0785 60.0047 76.6491 60.0707 76.2198 60.0707C75.1961 60.0707 74.2384 59.7735 73.2807 59.2451C73.2807 59.3772 73.3137 59.4763 73.3137 59.5093L73.3467 59.7405L73.1486 59.7735C73.1156 59.7735 72.7523 59.8396 72.4551 59.8726Z" fill="#FFDB00"/>
<path fill-rule="evenodd" clip-rule="evenodd" d="M16.7438 66.5439V66.7091C16.2484 70.1766 16.2815 73.5451 16.8429 76.22L16.8759 76.3521C16.975 76.7814 17.074 77.3758 17.2722 77.9042C17.5034 78.5977 18.0317 79.5554 18.329 80.1168C18.362 79.9517 18.395 79.8196 18.428 79.6545C18.5932 79.0271 18.7913 78.3335 18.9564 77.8382C19.4518 76.2861 19.8811 74.866 20.1453 73.0167C20.1453 72.7855 20.0792 72.158 20.0462 71.6627C20.0132 71.3985 19.9802 71.1673 19.9802 71.0022C19.8481 69.4501 19.782 68.1951 19.815 67.0723L16.7438 66.5439Z" fill="#FFDB00"/>
<path fill-rule="evenodd" clip-rule="evenodd" d="M5.48233 70.5066L5.61443 70.8368C5.68047 70.9359 6.47305 71.5304 6.6712 71.5964C6.83632 71.5304 7.43075 71.2992 7.56285 71.2331C7.62889 71.101 7.79401 70.1103 7.76099 69.9452L7.62889 69.615L7.95914 69.648C8.12426 69.648 8.91683 69.615 9.08195 69.5489H9.11498C9.11498 69.5159 9.21405 69.4829 9.18103 69.1856C9.11498 68.9215 8.98288 68.4921 8.91683 68.294C8.55357 67.4023 7.89309 66.8409 7.66192 66.6428C7.52982 66.5437 7.29865 66.4446 7.23261 66.4446C7.13353 66.4116 7.00144 66.4116 6.90236 66.4446C6.80329 66.4777 6.77027 66.5107 6.73724 66.5767C6.73724 66.6098 6.70422 66.7088 6.70422 66.7749C6.60515 67.0061 6.57212 67.1712 6.47305 67.2372C6.44003 67.3033 6.37398 67.3363 6.34096 67.3363C6.24188 67.3693 6.14281 67.3693 6.04374 67.3033C5.91164 67.2042 5.81257 66.973 5.81257 66.4777L5.77955 66.3786L5.87862 66.3125C5.91164 66.2795 5.97769 66.2465 6.04374 66.2135C6.14281 66.1474 6.24188 66.0814 6.30793 66.0153C6.5391 65.7181 6.57212 65.586 6.57212 65.586C6.5391 65.553 6.37398 65.52 6.20886 65.586L6.04374 65.6521L5.94467 65.52C5.94467 65.52 5.91164 65.4869 5.87862 65.4869C5.84559 65.52 5.74652 65.6521 5.64745 65.7511L5.28418 65.52C5.38326 65.3218 5.35023 65.1237 5.25116 64.9916C5.18511 64.9255 5.05302 64.8265 4.85487 64.9255L4.65673 64.9916L4.42556 64.4302L4.12834 64.5623L4.35951 65.0907L4.16137 65.1897C3.96322 65.2888 3.9302 65.4209 3.9302 65.52C3.96322 65.6851 4.06229 65.8502 4.29346 65.9493L4.16137 66.3456C4.02927 66.3125 3.86415 66.3125 3.83112 66.3456C3.7981 66.3456 3.7981 66.3456 3.7981 66.3786L3.83112 66.5437L3.69903 66.6098C3.50088 66.6758 3.40181 66.8079 3.40181 66.8409C3.40181 66.874 3.50088 66.907 3.86415 66.973C3.96322 67.0061 4.12834 66.973 4.19439 66.94C4.29346 66.907 4.35951 66.907 4.42556 66.907H4.52463L4.59068 67.0061C4.92092 67.3363 5.01999 67.5675 4.98697 67.7326C4.95394 67.8317 4.8879 67.9307 4.78882 67.9638C4.7558 67.9638 4.68975 67.9968 4.6237 67.9968C4.49161 67.9968 4.35951 67.9307 4.16137 67.7986C4.06229 67.7656 4.02927 67.6996 3.96322 67.6996C3.89717 67.6665 3.86415 67.6665 3.7981 67.6996C3.666 67.7656 3.56693 67.8317 3.53391 67.9307C3.46786 67.9968 3.36879 68.2279 3.36879 68.36C3.33576 68.6903 3.26971 69.5489 3.63298 70.4075C3.69903 70.6057 3.89717 71.002 4.06229 71.2331C4.22741 71.4973 4.32649 71.4643 4.35951 71.4313C4.55765 71.3652 5.15209 70.8368 5.25116 70.7378L5.48233 70.5066Z" fill="#FFDB00"/>
<path fill-rule="evenodd" clip-rule="evenodd" d="M21.4662 82.2634L21.1689 84.2779C22.1266 83.9807 23.4146 83.3863 23.5467 82.8249C24.2402 79.5885 26.0235 76.7484 28.8966 74.4367L29.524 73.2148C29.0287 73.413 28.5994 73.5781 28.1701 73.7432C26.6179 74.9321 25.7923 76.3521 24.9337 77.8712C24.7686 78.1354 24.6035 78.4327 24.4714 78.6968C23.943 79.6876 23.3816 80.7113 22.4899 81.5699C22.2257 81.8672 21.8955 82.0323 21.4662 82.2634Z" fill="#FFDB00"/>
<path fill-rule="evenodd" clip-rule="evenodd" d="M8.48713 72.1579C8.5862 72.257 8.61922 72.3561 8.68527 72.4551L8.75132 72.5542L12.0207 78.5646C11.7235 76.8473 11.5914 74.8659 11.5914 72.8184C11.5914 72.5542 11.5914 72.29 11.5914 72.0589L11.6244 71.3984C11.6574 70.7379 11.6905 70.1104 11.7235 69.45L11.4263 69.3839V69.2188C11.4263 69.1197 11.4263 69.0537 11.4593 68.9546C10.8318 69.483 10.3695 69.8132 9.90716 70.0774C9.80809 70.2425 9.64297 70.3416 9.5439 70.3746L9.44482 70.4076C9.2797 70.4737 9.01551 70.5067 8.65225 70.5397C8.65225 70.8039 8.5862 71.1672 8.4541 71.5635L8.48713 72.1579Z" fill="#FFDB00"/>
<path fill-rule="evenodd" clip-rule="evenodd" d="M12.6485 69.4827L12.6155 69.6148C12.5494 70.3413 12.5164 70.9027 12.4834 71.9925C12.4834 72.2237 12.4834 72.4879 12.4834 72.7521C12.4834 76.4508 12.9788 79.7532 13.8374 81.8337L14.7621 83.2537L16.3142 77.9369C16.1491 77.3094 15.984 76.6819 15.8519 76.0215C15.4225 73.5116 15.3565 70.8037 15.6867 67.7324C14.3658 68.9213 13.6392 69.3176 12.6485 69.4827Z" fill="#FFDB00"/>
<path fill-rule="evenodd" clip-rule="evenodd" d="M37.7132 18.4609L37.416 18.7251C37.6142 18.8572 37.7793 18.9893 37.9444 19.1544L37.7132 18.4609Z" fill="#FFDB00"/>
<path fill-rule="evenodd" clip-rule="evenodd" d="M37.0202 18.3284V18.3614L37.4826 17.9321L36.9872 16.479L36.4258 16.9744L37.0202 18.3284Z" fill="#FFDB00"/>
<path fill-rule="evenodd" clip-rule="evenodd" d="M27.3445 59.3443C27.2455 59.9387 27.0473 61.5239 26.9482 62.3825L28.2032 62.1513C28.2362 61.4248 28.3353 60.2359 28.5664 59.3443C28.4343 59.3443 28.3353 59.3112 28.2362 59.2452L28.1371 59.1792V59.0801C27.8399 59.2452 27.6087 59.3112 27.3445 59.3443Z" fill="#FFDB00"/>
<path fill-rule="evenodd" clip-rule="evenodd" d="M7.89258 65.6851C8.02467 65.7511 8.15677 65.8172 8.25584 65.9162H8.28887C8.58608 66.1804 9.34564 66.8409 9.80798 67.9307C9.87402 68.1289 10.0061 68.5251 10.0722 68.8554C10.5345 68.5582 11.0299 68.1289 11.6243 67.5674C12.0536 64.5623 12.8462 61.8213 13.903 59.8398C13.7709 59.8398 13.6388 59.8398 13.6388 59.8398H13.4076L13.4406 59.5756C13.4406 59.5756 13.4406 59.3444 13.5067 59.1133C12.7471 59.5426 11.8555 59.9059 10.6336 59.9389C10.5345 60.104 10.4024 60.3021 10.3033 60.4673C9.47773 61.7552 8.71818 62.9441 7.89258 65.6851Z" fill="#FFDB00"/>
<path fill-rule="evenodd" clip-rule="evenodd" d="M33.4205 19.9137C33.5195 19.9467 33.6186 19.9797 33.7507 20.0127C34.147 20.0788 36.5578 20.0458 37.4494 20.0127H37.9778C35.9964 18.2625 33.9158 17.1396 31.9014 16.7764L36.0294 19.3522L33.4205 19.9137ZM36.2275 21.697C37.5485 21.763 38.7043 22.0932 39.7941 22.7537C39.9592 22.5886 40.1244 22.4895 40.2895 22.3905C39.5299 21.4988 38.7704 20.7062 37.9778 20.0127L36.0624 21.2676C36.1285 21.3997 36.1945 21.5649 36.2275 21.697Z" fill="#FFDB00"/>
<path fill-rule="evenodd" clip-rule="evenodd" d="M12.8469 65.8174C12.7148 66.5109 12.6158 67.1053 12.6158 67.1053C12.5497 67.4356 12.4176 68.2281 12.3516 68.6244C12.8139 68.5914 14.0688 68.3272 15.8521 66.3788L12.8469 65.8174Z" fill="#FFDB00"/>
<path fill-rule="evenodd" clip-rule="evenodd" d="M14.9601 59.7407C14.0355 61.1608 13.375 63.5385 13.0117 65.0246L16.182 64.4302C16.5453 62.4157 17.0737 60.7645 17.569 59.8068C17.47 59.8068 17.3709 59.8068 17.3709 59.8068H17.1397V59.6086C17.1397 59.5756 17.1728 59.3444 17.1728 59.1133C16.4792 59.4435 15.7527 59.6417 14.9601 59.7407Z" fill="#FFDB00"/>
<path fill-rule="evenodd" clip-rule="evenodd" d="M18.6918 59.8068C18.1964 60.2691 17.635 61.9863 17.1396 64.232L20.2109 63.6706C20.4421 62.5147 20.8053 61.0617 21.2016 59.5095C21.0365 59.5426 20.8383 59.5426 20.6402 59.5426H20.4421V59.3774C19.9137 59.6747 19.3192 59.7737 18.6918 59.8068Z" fill="#FFDB00"/>
<path fill-rule="evenodd" clip-rule="evenodd" d="M35.666 15.1248L36.1944 16.3798L36.7888 15.8514L36.3265 14.4644L35.666 15.1248Z" fill="#FFDB00"/>
<path fill-rule="evenodd" clip-rule="evenodd" d="M56.0094 62.5809L57.6606 62.8781C57.4625 61.6892 57.1983 60.4673 56.901 59.4766C56.6368 59.4105 56.4057 59.3115 56.2075 59.2124V59.2785L56.0424 59.3115C55.8773 59.3445 55.7122 59.3775 55.5801 59.3775C55.6131 59.5757 55.6461 59.8068 55.6792 60.1041C55.8112 60.8966 55.9433 61.9534 56.0094 62.5809Z" fill="#FFDB00"/>
<path fill-rule="evenodd" clip-rule="evenodd" d="M0.892153 73.2145C0.826105 74.4694 0.760057 75.7244 0.760057 77.0123C0.363768 83.6171 2.11404 89.8587 3.60013 94.1848L4.92109 87.9433C3.86432 84.1125 3.60013 79.324 3.99642 72.3559C3.93037 72.3229 3.86432 72.2899 3.79827 72.2568C3.03872 72.6861 2.27916 72.9503 1.58566 73.1155C1.45356 73.1485 1.12332 73.1815 0.892153 73.2145Z" fill="#FFDB00"/>
<path fill-rule="evenodd" clip-rule="evenodd" d="M80.3804 73.1155C79.6868 72.9503 78.9273 72.6861 78.1677 72.2568C78.1017 72.2899 78.0356 72.3229 77.9696 72.3559C78.3659 79.324 78.1017 84.1125 77.0449 87.9433L78.3659 94.1848C79.852 89.8587 81.6022 83.6171 81.206 77.0123C81.206 75.7244 81.1729 74.4694 81.0739 73.2145C80.8427 73.1815 80.5125 73.1485 80.3804 73.1155Z" fill="#FFDB00"/>
<path fill-rule="evenodd" clip-rule="evenodd" d="M3.89715 60.8963C3.20365 62.4154 2.67526 63.8685 2.21292 65.4206C2.1799 65.5197 2.14688 65.6188 2.14688 65.7509L2.08083 65.949C1.55244 67.9305 1.18918 70.011 0.958008 72.2896C1.15615 72.2566 1.42035 72.2236 1.55244 72.1906C2.11385 72.0254 2.67526 71.8273 3.17062 71.5961C2.97248 71.2989 2.80736 70.9687 2.74131 70.7705C2.27897 69.6807 2.37804 68.657 2.41107 68.2607C2.44409 67.9305 2.60921 67.5672 2.67526 67.4681C2.47712 67.2369 2.37804 66.9067 2.47712 66.6095C2.54316 66.2792 2.77433 66.0811 2.93945 65.916C2.97248 65.883 3.0055 65.8499 3.0055 65.8169C3.0055 65.7178 3.0055 65.6518 2.97248 65.5527C2.97248 65.2885 3.03853 65.0243 3.20365 64.7932L2.90643 64.0006L4.9209 63.208L5.25114 63.9676C5.51533 64.0336 5.77953 64.1657 5.94465 64.3639C6.01069 64.4299 6.07674 64.4959 6.10977 64.562C6.14279 64.595 6.20884 64.595 6.24186 64.595C6.53908 64.562 6.8363 64.628 7.06746 64.7601C7.10049 64.7932 7.13351 64.7932 7.16654 64.8262C7.79399 62.9108 8.58657 61.2926 9.5773 59.8726C9.28008 59.8396 8.88379 59.7735 8.88379 59.7735L8.68565 59.7405L8.71867 59.5093C8.71867 59.4763 8.71867 59.3772 8.75169 59.2451C7.79399 59.7735 6.8363 60.0707 5.81255 60.0707C5.38324 60.0707 4.95392 60.0047 4.42554 59.9056C4.12832 60.5331 3.99622 60.7972 3.89715 60.8963Z" fill="#FFDB00"/>
<path fill-rule="evenodd" clip-rule="evenodd" d="M29.0947 58.4859C29.2929 58.5189 29.5571 58.4859 29.8543 58.3208L29.3259 57.3301C29.2268 57.6603 29.1278 58.0896 29.0947 58.4859Z" fill="#FFDB00"/>
<path fill-rule="evenodd" clip-rule="evenodd" d="M19.0556 50.4941C16.0504 52.7068 14.8615 57.3962 14.6303 58.3539C14.5973 58.6181 14.5312 58.7832 14.5312 58.9153C15.588 58.8492 16.4136 58.585 17.3713 57.9906L17.4043 57.8915C17.9988 55.2826 19.2207 52.7728 20.7068 51.0886C20.2774 51.1876 19.8812 51.1546 19.5509 50.9895C19.3858 50.9235 19.1876 50.7583 19.0556 50.4941Z" fill="#FFDB00"/>
<path fill-rule="evenodd" clip-rule="evenodd" d="M26.585 58.4854C27.1794 58.5515 27.9059 58.3864 28.1701 58.0892C28.3352 57.5278 28.5334 56.7682 28.7315 56.1738L27.972 54.7207C27.5427 55.7114 26.9482 57.0324 26.585 58.4854Z" fill="#FFDB00"/>
<path fill-rule="evenodd" clip-rule="evenodd" d="M16.8096 49.7015V49.7345C16.8096 49.8336 16.8426 49.8336 16.8756 49.8336C17.0738 49.9657 17.8333 49.9657 19.0552 49.3713C19.4515 48.8099 20.6073 47.4229 21.3008 46.5972C21.3669 46.5312 21.3999 46.4982 21.466 46.4321C20.6734 46.5642 19.6496 46.5642 19.2203 46.4652C17.8663 47.8852 17.0077 49.041 16.8096 49.7015Z" fill="#FFDB00"/>
<path fill-rule="evenodd" clip-rule="evenodd" d="M10.5017 49.3052C10.4687 49.4703 10.6668 49.6024 10.7659 49.6354C11.0631 49.7675 11.8557 49.3713 12.6483 48.975C13.3088 47.7201 14.7948 46.0358 16.5451 44.4176C15.7856 44.4837 15.1581 44.4507 14.6628 44.0874C12.4171 45.8047 10.7329 47.8852 10.5017 49.3052Z" fill="#FFDB00"/>
<path fill-rule="evenodd" clip-rule="evenodd" d="M18.0645 44.4504C18.4607 44.4834 19.3524 44.4504 20.4422 44.0211C20.9375 43.5588 21.3669 43.1955 21.6971 42.9313C21.6311 42.7992 21.565 42.6671 21.4659 42.568C21.3669 42.4359 21.2348 42.3369 21.1027 42.2378C20.5413 42.502 19.7487 43.0304 18.824 43.7239C18.824 43.7239 18.3617 44.1532 18.0645 44.4504Z" fill="#FFDB00"/>
<path fill-rule="evenodd" clip-rule="evenodd" d="M24.3389 58.5851C25.0654 58.6842 25.5608 58.3539 25.7259 58.1888C26.1552 56.7357 26.7496 55.1176 27.4431 53.6645L26.8487 52.5747C26.0561 53.9947 24.9993 56.1743 24.4379 58.1888L24.3389 58.5851Z" fill="#FFDB00"/>
<path fill-rule="evenodd" clip-rule="evenodd" d="M9.74219 58.9812C11.5915 59.1794 12.6153 58.651 13.7711 57.8914C14.0683 56.6035 14.7288 54.6551 15.4554 53.3341L15.6205 53.0369C15.9837 52.4094 16.38 51.6829 17.2717 50.8243C16.9084 50.8243 16.6112 50.7582 16.38 50.6261C16.2479 50.5271 16.1489 50.428 16.0828 50.2959C15.026 50.6261 14.3656 50.7582 13.8702 50.7582C12.3511 52.3764 11.2613 54.9853 10.0394 58.2547C9.97336 58.4198 9.84126 58.7501 9.74219 58.9812Z" fill="#FFDB00"/>
<path fill-rule="evenodd" clip-rule="evenodd" d="M24.4707 50.7908C24.5368 50.8569 24.7349 50.9229 25.0982 50.9229C25.2303 50.9229 25.3954 50.9229 25.5275 50.8899C25.4614 50.8569 24.9991 50.5266 24.867 50.3945C24.8009 50.4276 24.7349 50.4936 24.6688 50.5927C24.6028 50.6587 24.5037 50.7578 24.4707 50.7908Z" fill="#FFDB00"/>
<path fill-rule="evenodd" clip-rule="evenodd" d="M22.0277 50.9229C20.6737 52.2438 19.3197 54.0601 18.263 57.957C18.1969 58.2542 18.1639 58.6175 18.1309 58.9147C19.2537 58.9147 20.3104 58.7826 20.5746 57.957C21.3672 55.3151 22.1598 52.9373 23.8771 51.2201C23.844 51.187 23.811 51.154 23.811 51.121C23.2826 51.187 22.49 51.2201 22.0277 50.9229Z" fill="#FFDB00"/>
<path fill-rule="evenodd" clip-rule="evenodd" d="M24.7687 51.5836C23.0184 53.1358 22.2919 55.3153 21.4663 58.1884C21.4332 58.3205 21.4002 58.4857 21.3672 58.6178C22.3249 58.5847 23.0844 58.3205 23.5798 57.8582C24.2403 55.6126 25.231 53.3339 26.2878 51.6497L26.0236 51.5176C25.5282 51.6497 25.0329 51.5836 24.7687 51.5836Z" fill="#FFDB00"/>
<path fill-rule="evenodd" clip-rule="evenodd" d="M15.5215 43.5258C16.0829 43.6579 17.3378 43.5258 17.8001 43.3607C18.5927 42.7333 19.3193 42.2379 19.9467 41.8416C19.7486 41.8416 19.5834 41.8086 19.3853 41.8086C18.3285 41.9407 16.9415 42.5681 15.5215 43.5258Z" fill="#FFDB00"/>
<path fill-rule="evenodd" clip-rule="evenodd" d="M23.1173 49.0742C22.721 49.5366 22.5229 49.9328 22.4238 50.164C22.4238 50.197 22.688 50.3291 22.9192 50.3622C23.2825 50.3952 23.9099 50.3622 24.075 50.197C24.1081 50.164 24.1411 50.164 24.1741 50.131C23.976 49.9328 23.7778 49.7347 23.5466 49.5035C23.4146 49.3714 23.2825 49.2063 23.1173 49.0742Z" fill="#FFDB00"/>
<path fill-rule="evenodd" clip-rule="evenodd" d="M17.2386 45.0781C16.413 45.8047 13.5399 48.5126 13.4408 49.4043C13.4078 49.6354 13.5399 49.7675 13.5729 49.8006C13.9031 50.0317 15.3562 49.6024 15.9506 49.4043C16.2479 48.4796 17.3707 46.9935 18.9228 45.3753L18.9558 45.3423C18.3614 45.4084 17.6349 45.4084 17.2386 45.0781Z" fill="#FFDB00"/>
<path fill-rule="evenodd" clip-rule="evenodd" d="M20.0791 45.6394C20.5414 45.6725 21.4331 45.6064 21.9615 45.3752C22.0275 44.8138 22.0275 44.3185 21.9615 43.8892C21.4661 44.3185 20.5745 45.1441 20.0791 45.6394Z" fill="#FFDB00"/>
<path fill-rule="evenodd" clip-rule="evenodd" d="M19.7812 49.9329C19.7812 49.9989 19.7812 50.0319 19.7812 50.065C19.8473 50.164 19.9464 50.2301 20.0124 50.2301C20.2436 50.2631 20.6399 50.3622 21.6966 49.6026C21.7627 49.5035 21.8618 49.3715 21.9608 49.2394C22.159 48.9752 22.3571 48.711 22.5222 48.4468C22.192 48.0505 22.0269 47.7202 21.9278 47.4561C21.0362 48.2817 20.0454 49.4045 19.7812 49.9329Z" fill="#FFDB00"/>
<path fill-rule="evenodd" clip-rule="evenodd" d="M4.68945 59.0473C5.87832 59.2784 7.3644 59.2784 9.21375 57.8254C10.3696 54.8202 11.4264 52.2113 12.9455 50.461C12.8134 50.3289 12.7143 50.1968 12.6152 49.9987C11.6906 50.461 10.9971 50.7252 10.4026 50.461C10.1715 50.3619 9.97331 50.1968 9.80819 49.9326L9.74214 49.9656C9.24678 50.2298 8.75142 50.5271 7.85977 50.5931C6.07647 53.6974 5.08574 56.3393 4.68945 59.0473Z" fill="#FFDB00"/>
<path fill-rule="evenodd" clip-rule="evenodd" d="M7.19922 49.6354C7.26527 49.6685 7.39736 49.7015 7.56248 49.7015C8.38809 49.7015 8.8174 49.4703 9.31276 49.1731C9.41183 49.1401 9.51091 49.074 9.60998 49.008C9.94022 47.621 11.2282 45.8046 13.1105 44.1865C12.5161 44.1534 12.0538 44.0213 11.7235 43.7241C9.90719 45.0781 7.7276 47.1917 7.19922 49.6354Z" fill="#FFDB00"/>
<path fill-rule="evenodd" clip-rule="evenodd" d="M12.5166 43.1623C13.012 43.3935 13.8706 43.2614 14.5641 43.0302L14.6962 42.9972C16.0172 42.0395 17.3711 41.379 18.56 41.0818C18.3619 40.8176 18.2298 40.5534 18.1637 40.3223C16.8428 40.7186 14.6632 41.6763 12.5166 43.1623Z" fill="#FFDB00"/>
<path fill-rule="evenodd" clip-rule="evenodd" d="M4.88807 72.2238C4.35968 80.0505 5.11924 86.0609 5.77972 87.6791C6.27508 88.7689 6.93556 90.0568 7.33185 90.7503L8.71886 84.1785C8.09141 82.4943 7.76117 80.0835 7.72814 77.0453L7.69512 76.7811C7.69512 76.55 7.69512 76.2527 7.69512 76.1537L6.4402 72.488C6.24206 72.455 5.94484 72.2898 5.54855 72.0257C5.4825 71.9596 5.44948 71.9266 5.38343 71.8936C5.25134 72.0257 5.05319 72.1247 4.88807 72.2238Z" fill="#FFDB00"/>
<path fill-rule="evenodd" clip-rule="evenodd" d="M14.9268 92.963C15.257 93.0621 15.5542 93.2933 16.611 93.0621C17.7008 92.8309 17.7668 92.5007 18.031 92.2695C17.2054 92.6328 16.0826 92.897 14.9268 92.963Z" fill="#FFDB00"/>
<path fill-rule="evenodd" clip-rule="evenodd" d="M13.672 91.0803C13.573 91.2784 13.4739 91.5426 13.5399 91.7408C13.606 92.005 14.0353 92.104 14.0683 92.104C16.1158 92.104 18.2624 91.4436 18.3615 91.1463C18.4275 90.9812 18.3945 90.8821 18.3945 90.8491C16.7763 91.1463 15.7856 91.2124 14.4976 91.2454C14.2665 91.2124 13.9362 91.1794 13.672 91.0803Z" fill="#FFDB00"/>
<path fill-rule="evenodd" clip-rule="evenodd" d="M16.9414 93.7225C17.0075 94.1518 17.2386 95.3407 17.5358 95.836C17.8661 96.3974 19.4512 97.19 19.7154 97.157C19.7815 97.124 19.8475 97.091 19.9136 97.0579C19.9796 97.0249 20.0457 96.9919 20.0787 96.9919C20.2108 96.7277 20.2108 95.2086 19.8806 94.6141C19.6164 94.0858 18.7577 93.3592 18.4605 93.062C18.0312 93.3592 17.5028 93.5574 16.9414 93.7225Z" fill="#FFDB00"/>
<path fill-rule="evenodd" clip-rule="evenodd" d="M8.91689 80.9092C9.04899 82.0981 9.28016 83.0888 9.57738 83.9144L10.7332 86.1601C10.7662 85.9289 10.7993 85.7638 10.8323 85.6977C10.6341 85.1033 10.1058 83.0888 10.0727 82.9237L8.71875 79.0269C8.75177 79.6213 8.81782 80.2487 8.88387 80.8102L8.91689 80.9092Z" fill="#FFDB00"/>
<path fill-rule="evenodd" clip-rule="evenodd" d="M14.4316 88.0753C14.9931 88.3395 15.7196 88.6367 15.9177 88.6367C16.0498 88.6367 16.1489 88.6036 16.2149 88.5706C15.6205 88.1083 14.9931 87.6459 14.7949 87.5469C14.7289 87.6129 14.5968 87.8441 14.4316 88.0753Z" fill="#FFDB00"/>
<path fill-rule="evenodd" clip-rule="evenodd" d="M7.33105 72.3559C8.65202 76.1207 10.7986 82.2301 10.8977 82.6594C10.9637 82.8245 10.9967 83.0557 11.0628 83.3529C11.2279 83.9804 11.5581 85.3014 11.6572 85.4995C11.7893 85.6646 12.3837 86.0279 12.8131 86.0939C13.2093 86.127 14.068 85.6976 14.167 85.4995C14.3322 85.2353 14.4643 84.5418 14.3982 84.3106C14.3322 84.1125 13.7047 83.1878 13.3084 82.5934C13.1103 82.2962 12.9451 82.032 12.8131 81.8668C12.5158 81.3715 9.11436 75.1299 7.59525 72.2568C7.49618 72.2899 7.3971 72.3229 7.33105 72.3559Z" fill="#FFDB00"/>
<path fill-rule="evenodd" clip-rule="evenodd" d="M13.3416 89.0658C13.1765 89.2969 13.0114 89.6602 13.0774 89.7923C13.1435 89.9904 14.0681 90.3207 14.2993 90.3207C15.6203 90.3207 17.6678 90.1556 17.965 90.0235C18.031 89.9904 18.064 89.8253 18.031 89.5611C17.965 89.2969 17.8659 89.1318 17.7999 89.1318H17.0403C16.9082 89.2969 16.5119 89.5942 15.9505 89.5942C15.3561 89.5942 14.2002 88.9997 13.837 88.7686L13.3416 89.0658Z" fill="#FFDB00"/>
<path fill-rule="evenodd" clip-rule="evenodd" d="M18.3948 90.1559V89.6275C18.4278 89.3963 18.3618 89.2312 18.2297 89.0661L17.8994 88.7358H20.013L19.5176 89.0991C19.2204 89.3303 19.1213 89.4293 18.8571 89.6935L18.3948 90.1559Z" fill="#FFDB00"/>
<path fill-rule="evenodd" clip-rule="evenodd" d="M32.5285 22.2254C32.9248 22.2254 33.255 21.9282 33.255 21.5319C33.255 21.1356 32.9248 20.8384 32.5285 20.8384C32.1322 20.8384 31.835 21.1356 31.835 21.5319C31.835 21.9282 32.1322 22.2254 32.5285 22.2254Z" fill="#FFDB00"/>
<path fill-rule="evenodd" clip-rule="evenodd" d="M31.5049 13.309L32.1654 14.8611L32.991 14.1346L32.2975 12.4834C32.0993 12.6155 31.9672 12.7476 31.8351 12.8797C31.703 13.0118 31.604 13.1439 31.5049 13.309Z" fill="#FFDB00"/>
<path fill-rule="evenodd" clip-rule="evenodd" d="M32.3643 22.8858C32.5294 23.183 32.7275 23.4803 32.9257 23.7775C32.9587 23.4472 33.0578 23.117 33.2889 22.8528C33.2559 22.8198 33.2559 22.7868 33.2229 22.7207C32.9587 22.8858 32.6615 22.9519 32.3643 22.8858Z" fill="#FFDB00"/>
<path fill-rule="evenodd" clip-rule="evenodd" d="M30.6133 15.9175C30.7454 15.9175 30.8775 15.9505 31.0096 15.9505L31.7031 15.29L31.1086 13.936C30.8444 14.4974 30.6793 15.1579 30.6133 15.9175Z" fill="#FFDB00"/>
<path fill-rule="evenodd" clip-rule="evenodd" d="M31.4064 19.3855L32.0339 20.2111C32.0999 20.2111 32.166 20.178 32.232 20.178C32.1329 20.0459 31.9678 19.8478 31.8357 19.7157L31.6706 19.5506L33.9823 18.9892L31.0762 17.1729L33.2888 18.9231L31.4064 19.3855Z" fill="#FFDB00"/>
<path fill-rule="evenodd" clip-rule="evenodd" d="M30.7129 17.8662C30.7129 18.1634 30.7129 18.4606 30.7459 18.7579L31.5715 18.5267L30.7129 17.8662Z" fill="#FFDB00"/>
<path fill-rule="evenodd" clip-rule="evenodd" d="M69.7139 86.6882C69.747 86.0938 68.426 84.7728 68.426 84.7728L67.2041 84.4756C67.2041 84.4756 67.7325 85.2682 67.7655 86.1268C67.7655 86.9524 67.4683 87.811 67.4683 87.811C68.0627 87.745 69.6479 87.2496 69.7139 86.6882Z" fill="#FFDB00"/>
<path fill-rule="evenodd" clip-rule="evenodd" d="M59.4435 87.4479C59.5425 87.4479 59.6086 87.4479 59.6746 87.4479C60.0379 87.4809 60.9296 87.8111 62.3826 88.3395C64.0999 88.967 66.5106 89.8586 67.2702 89.8586C67.8316 89.8256 69.3837 89.2972 69.8791 88.9339C70.4735 88.5046 71.3652 87.613 71.3321 86.9855C71.2661 86.292 70.5065 85.3343 70.5065 85.3343C70.3744 85.0701 69.813 84.905 69.2847 84.8389C69.78 85.3343 70.5065 86.226 70.4075 86.7543C70.2754 87.4148 69.6809 87.9102 68.5581 88.2404C67.8316 88.4716 66.9399 88.5376 66.9069 88.5376H66.6097L66.7088 88.2735C66.7088 88.2404 67.072 87.0516 67.1051 86.1599C67.1381 85.4334 66.5437 84.5417 66.2464 84.2115C66.0813 84.0133 65.586 83.8482 65.0245 83.8482C65.3218 84.2445 65.7841 84.938 65.9162 85.4664C66.1804 86.6222 65.8501 87.5799 65.1236 87.8441C64.6943 87.9762 64.0338 87.5799 62.9771 86.8534C62.4817 86.5232 61.8212 86.0278 61.6231 86.0608C61.557 86.0939 61.4579 86.0939 61.4249 86.1269L61.2598 86.292C61.2268 86.325 61.1607 86.3581 61.1277 86.4241C61.0617 86.5232 61.0286 86.6222 61.0286 86.6553L60.9956 86.8204H60.8305C57.8583 86.9525 57.5941 86.7213 57.4951 86.6222C57.363 86.4902 57.2639 86.325 57.2639 86.1599C57.2309 85.4994 57.9244 84.7399 57.9904 84.6738C58.1555 84.4757 58.3207 84.3106 58.4858 84.2115C58.2546 84.0464 58.0895 83.9143 57.9244 83.6831C57.7592 84.0794 57.462 84.6078 56.8676 85.0041C55.9759 85.5985 55.2824 85.6646 54.9852 85.6646C54.8201 86.1269 54.5229 86.9855 54.4899 87.2827C54.4568 87.4479 54.5229 87.679 54.655 87.8441C54.721 87.9102 54.8201 88.0093 54.9852 88.0423C55.1503 88.0423 55.8769 87.9432 56.5704 87.8111C57.6271 87.646 58.783 87.4479 59.4435 87.4479Z" fill="#FFDB00"/>
<path fill-rule="evenodd" clip-rule="evenodd" d="M38.9359 7.00104H43.0639L41.4788 4.12795L44.2858 5.77915V1.75021L41.4788 3.40142L43.0639 0.52832H38.969L40.5541 3.40142L37.7471 1.75021V5.77915L40.5541 4.12795L38.9359 7.00104Z" fill="#FFDB00"/>
<path fill-rule="evenodd" clip-rule="evenodd" d="M71.8936 86.457C72.0257 86.2259 72.1578 85.9617 72.2899 85.6975L71.3652 85.4663C71.5634 85.6645 71.8936 86.457 71.8936 86.457Z" fill="#FFDB00"/>
<path fill-rule="evenodd" clip-rule="evenodd" d="M62.1182 80.3477C61.6889 81.0081 61.3917 81.7347 61.2266 82.5603L63.8355 83.1877C64.7932 83.0556 65.8499 83.2538 66.4113 83.551C66.9397 83.8152 66.9728 83.9143 66.9728 83.9143L68.1286 84.1785C69.2184 84.0133 70.5724 84.4426 71.0347 84.905L72.4548 85.2352C72.6199 84.7068 72.6859 84.1454 72.6859 83.551C72.6859 83.3198 72.6859 83.0887 72.6529 82.8575L62.1182 80.3477Z" fill="#FFDB00"/>
<path fill-rule="evenodd" clip-rule="evenodd" d="M70.1104 77.9041C71.4974 78.6637 72.5211 79.8856 73.0495 81.3386C73.0825 81.1735 73.1155 80.9754 73.1155 80.8102C73.2476 79.7865 73.3137 78.5976 73.3467 77.2436C73.3467 77.0455 73.3137 75.2292 73.2807 73.4459C73.2476 72.224 73.2146 71.0021 73.2146 70.3086C72.2899 70.1104 71.5964 69.8132 70.5727 68.9546C70.5727 69.0537 70.6057 69.1197 70.6057 69.2188V69.3839L70.2755 69.45C70.3415 70.1104 70.3745 70.7379 70.4076 71.3984L70.4406 72.0589C70.4406 72.191 70.4406 72.3561 70.4406 72.5212L71.0681 72.6203L70.8039 72.9505L71.2332 72.7854L70.5397 76.5501L70.2755 76.319C70.2094 77.0455 70.1434 77.5739 70.1104 77.9041Z" fill="#FFDB00"/>
<path fill-rule="evenodd" clip-rule="evenodd" d="M73.3799 84.5418L74.7008 90.7503C75.0641 90.0568 75.7576 88.7689 76.22 87.6791C76.7814 86.3581 77.8051 80.4468 77.0786 71.5303L77.0456 71.4973C76.6823 71.2331 76.4181 71.0349 75.7906 70.2754C75.3944 70.3745 74.7008 70.4075 74.1725 70.4075C74.1725 71.3982 74.2385 73.875 74.2385 75.0969C74.2715 75.4932 74.2715 75.7904 74.2715 75.7904C74.2715 77.3756 74.2385 79.4891 73.9743 81.3715C73.8422 82.2631 73.6771 83.0557 73.4459 83.7492C73.4459 84.0134 73.4129 84.2776 73.3799 84.5418Z" fill="#FFDB00"/>
<path fill-rule="evenodd" clip-rule="evenodd" d="M14.7285 86.6222C15.1578 86.6222 15.7522 87.0846 16.5448 87.679C16.8751 87.9102 17.1723 88.1083 17.3044 88.1744C17.7007 88.3725 19.7151 88.4056 20.2105 88.2404C20.3756 88.2074 20.5738 88.1083 20.8049 87.9762C21.2012 87.7781 21.6966 87.5139 22.291 87.4479C22.8524 87.3818 24.2064 87.613 25.3953 87.8111C26.0888 87.9432 26.8153 88.0423 26.9804 88.0423C27.1456 88.0093 27.2446 87.9102 27.3107 87.8441C27.4428 87.679 27.5088 87.4479 27.4758 87.2827C27.4428 86.9855 27.1456 86.1269 26.9804 85.6646C26.6832 85.6646 25.9897 85.5985 25.0981 85.0041C24.5036 84.6078 24.2064 84.0794 24.0413 83.6831C23.9092 83.9143 23.7111 84.0464 23.4799 84.2115C23.645 84.3106 23.8101 84.4757 23.9752 84.6738C24.0743 84.7399 24.7348 85.4994 24.7018 86.1599C24.7018 86.325 24.6027 86.4902 24.4706 86.6222C23.9092 87.1176 18.9886 86.7213 18.4272 86.6553C18.0309 86.6222 17.3704 86.5232 16.7099 86.4241C15.9834 86.325 15.0918 86.1929 14.9266 86.1929C14.5964 86.226 13.7378 86.5892 13.3085 86.9525C12.9122 87.2497 12.8461 87.8772 12.9452 88.1083C12.9782 88.2404 13.0112 88.2735 13.0112 88.2735C13.0112 88.2735 13.0443 88.2735 13.1433 88.2404C13.3085 88.1744 13.4406 88.0423 13.4736 87.9762C13.6057 87.712 14.1341 86.7543 14.6294 86.6553C14.6625 86.6553 14.6955 86.6222 14.7285 86.6222Z" fill="#FFDB00"/>
<path fill-rule="evenodd" clip-rule="evenodd" d="M27.3774 77.1772C26.3537 78.3991 25.2639 79.9843 24.8676 81.3713C24.3722 83.1546 25.2308 84.0132 25.5281 84.2114C25.8253 84.4756 26.2216 84.5746 26.5188 84.6407C26.2876 84.1784 25.9904 83.5509 25.8253 82.8904V82.8244C25.6602 82.1969 25.495 81.5364 25.8253 80.3806C25.9904 79.8192 26.75 78.3331 27.3774 77.1772Z" fill="#FFDB00"/>
<path fill-rule="evenodd" clip-rule="evenodd" d="M24.702 91.2788C24.6689 91.51 24.6689 91.6751 24.6689 91.8732C24.702 93.0291 25.9899 93.8877 26.7164 94.1849L27.0137 94.35L26.9806 94.6473C26.7825 96.7938 27.1458 98.379 28.0374 99.3697C28.4337 99.799 29.0281 100.096 29.6886 100.294C28.6318 98.6102 27.0797 95.9352 28.4007 92.3356C27.9053 92.5667 27.4099 92.5667 26.9476 92.5667C26.4853 92.5337 25.2964 92.1705 24.702 91.2788Z" fill="#FFDB00"/>
<path fill-rule="evenodd" clip-rule="evenodd" d="M37.0199 84.6738C35.9631 85.5655 34.8403 86.5892 33.5854 87.7451C33.2221 88.1083 32.8258 88.4056 32.4625 88.7358C31.6369 89.4293 30.7783 90.1558 29.9197 91.1796C29.2592 91.9722 28.7969 93.8215 28.7969 94.9773C28.7969 96.7276 29.5564 98.1477 30.316 99.5347C30.6462 92.0382 34.0807 87.2167 37.0859 85.3013L37.0199 84.6738Z" fill="#FFDB00"/>
<path fill-rule="evenodd" clip-rule="evenodd" d="M31.208 100.757C31.8024 102.309 32.3969 103.399 33.1564 104.224C31.241 96.0013 33.7178 89.6937 37.2514 87.5471L37.1523 86.3252C34.3453 88.4057 31.208 93.3263 31.208 100.757Z" fill="#FFDB00"/>
<path fill-rule="evenodd" clip-rule="evenodd" d="M31.3071 77.5734C30.8778 78.4651 30.1182 80.3474 29.9531 81.2391C30.2173 81.2061 30.4815 81.2061 30.7457 81.173C31.0759 79.3897 33.2225 77.3092 37.3835 76.5167L37.1194 74.6343L31.3071 77.5734Z" fill="#FFDB00"/>
<path fill-rule="evenodd" clip-rule="evenodd" d="M27.1462 79.6874C26.948 79.9516 26.5518 80.7772 26.5518 81.6028C26.5848 82.3294 26.7829 82.9898 26.9811 83.4522C27.1132 83.0559 27.2783 82.6926 27.5425 82.3954C28.0048 81.834 28.7313 81.5698 29.0286 81.4707C29.0946 80.7442 29.59 79.2911 30.0523 78.2344L27.1462 79.6874Z" fill="#FFDB00"/>
<path fill-rule="evenodd" clip-rule="evenodd" d="M34.3456 105.248C35.0722 105.71 35.8978 106.008 36.8224 106.206C36.7564 105.908 36.6573 105.644 36.5582 105.38C31.5716 102.573 34.6759 93.5905 37.3178 88.6699V88.5708C34.1145 90.8495 32.1 97.1571 34.3456 105.248Z" fill="#FFDB00"/>
<path fill-rule="evenodd" clip-rule="evenodd" d="M25.3301 90.7175C25.5282 90.9817 25.8585 91.3119 26.3208 91.5431C26.8492 91.8403 27.7078 92.0054 28.6655 91.1798C29.8214 89.9579 31.0102 88.8681 32.1661 87.8444C32.4303 87.5802 32.7275 87.316 32.9917 87.0848C34.3126 85.8629 35.6666 84.608 36.9546 83.5513L36.8555 82.1973C35.8978 84.1127 33.1898 87.4151 30.9442 87.4811C30.5149 87.7783 30.0855 88.2077 29.6562 88.67C28.7976 89.5616 27.8399 90.5524 26.651 90.8496H26.552C26.1227 90.9156 25.6603 90.8496 25.3301 90.7175Z" fill="#FFDB00"/>
<path fill-rule="evenodd" clip-rule="evenodd" d="M39.9594 94.1519C38.11 98.7422 38.2752 102.804 40.5208 106.899V97.7845L39.9594 94.1519Z" fill="#FFDB00"/>
<path fill-rule="evenodd" clip-rule="evenodd" d="M31.6699 81.2062C32.0662 81.2392 32.4295 81.3382 32.8258 81.4373L32.9248 81.4703C33.5193 81.6355 34.0807 81.7676 34.6091 81.7015C34.7081 81.7015 34.7742 81.6685 34.8733 81.6355C35.5668 81.4373 36.2603 80.2815 36.6896 79.3568L37.3831 77.4744C34.1467 78.1679 32.0332 79.5219 31.6699 81.2062ZM37.4491 77.4744L38.3738 90.8822L38.3078 91.0143C35.0384 96.6944 36.2603 102.011 37.9115 106.47C38.0105 106.668 38.1426 106.833 38.4068 107.163C38.638 107.427 38.9352 107.824 39.3645 108.418C39.6618 108.814 40.1241 109.277 40.4874 109.673L40.5204 109.706V108.649C36.0951 101.945 37.9445 96.2321 39.7278 92.4674L37.5152 77.4414C37.4822 77.4744 37.4491 77.4744 37.4491 77.4744Z" fill="#FFDB00"/>
<path fill-rule="evenodd" clip-rule="evenodd" d="M37.4499 90.4199C36.5912 90.7502 32.9256 100.789 36.1289 103.927C35.2042 100.591 35.3694 95.9349 37.4499 90.6841V90.4199Z" fill="#FFDB00"/>
<path fill-rule="evenodd" clip-rule="evenodd" d="M56.2404 80.3147C56.5376 81.5035 56.3725 82.131 56.2404 82.7584L56.2074 82.8245C56.0423 83.485 55.7451 84.1124 55.5469 84.5748C55.8111 84.5417 56.2074 84.4097 56.5376 84.1785C56.8018 83.9473 57.6605 83.1217 57.1651 81.3384C56.8018 79.9184 55.679 78.3332 54.6553 77.1113C55.2827 78.2672 56.0753 79.7533 56.2404 80.3147Z" fill="#FFDB00"/>
<path fill-rule="evenodd" clip-rule="evenodd" d="M55.0847 92.5005C54.6224 92.5335 54.1601 92.5005 53.6317 92.3024C54.9527 95.869 53.4335 98.5439 52.3438 100.228C53.0373 100.063 53.6317 99.7328 53.995 99.3035C54.9196 98.3458 55.2499 96.7606 55.0517 94.581V94.2838L55.3159 94.1517C56.0755 93.8215 57.3304 92.9959 57.3634 91.84C57.3964 91.6419 57.3964 91.4438 57.3634 91.2456C56.769 92.1042 55.5471 92.4675 55.0847 92.5005Z" fill="#FFDB00"/>
<path fill-rule="evenodd" clip-rule="evenodd" d="M44.9785 85.2354C47.9507 87.1508 51.4182 91.9723 51.7485 99.4688C52.508 98.1148 53.2345 96.6617 53.2676 94.9114C53.2676 93.7886 52.7722 91.9062 52.1117 91.1137C51.2861 90.0899 50.4275 89.3634 49.6019 88.6699C49.2056 88.3727 48.8423 88.0424 48.446 87.6792C47.1911 86.5563 46.0683 85.5326 45.0115 84.6079L44.9785 85.2354Z" fill="#FFDB00"/>
<path fill-rule="evenodd" clip-rule="evenodd" d="M44.9125 86.292L44.8135 87.4809C48.3471 89.6274 50.7908 95.935 48.9085 104.191C49.635 103.365 50.2625 102.243 50.8569 100.69C50.8239 93.2601 47.6866 88.3395 44.9125 86.292Z" fill="#FFDB00"/>
<path fill-rule="evenodd" clip-rule="evenodd" d="M44.9458 74.6016L44.6816 76.4509C48.8097 77.2765 50.9562 79.324 51.2865 81.1403C51.5837 81.1403 51.8479 81.1734 52.079 81.2064C51.9139 80.3147 51.1544 78.3993 50.725 77.5077L44.9458 74.6016Z" fill="#FFDB00"/>
<path fill-rule="evenodd" clip-rule="evenodd" d="M52.0127 78.168C52.442 79.2578 52.9704 80.6778 53.0364 81.4043C53.3337 81.5034 54.0272 81.8006 54.5225 82.362C54.7537 82.6592 54.9518 82.9895 55.0509 83.3858C55.2821 82.9565 55.4802 82.296 55.4802 81.5364C55.5132 80.7108 55.117 79.8852 54.9188 79.6541L52.0127 78.168Z" fill="#FFDB00"/>
<path fill-rule="evenodd" clip-rule="evenodd" d="M44.7479 88.5049L44.7148 88.604C47.3898 93.5245 50.461 102.507 45.4744 105.314C45.4083 105.611 45.3093 105.876 45.2102 106.14C46.1679 105.942 46.9935 105.644 47.687 105.182C49.9657 97.0911 47.9512 90.7835 44.7479 88.5049Z" fill="#FFDB00"/>
<path fill-rule="evenodd" clip-rule="evenodd" d="M55.4809 90.8164L55.4148 90.7833C54.226 90.4861 53.2683 89.4954 52.4097 88.6368C51.9473 88.1744 51.518 87.7121 51.1217 87.4479C48.8761 87.3819 46.1681 84.0464 45.1774 82.1641L45.1113 83.485C46.3662 84.5748 47.7533 85.8297 49.0742 87.0186C49.3384 87.2828 49.6026 87.514 49.8998 87.7782C51.0226 88.8349 52.2445 89.8917 53.3674 91.1136C54.325 91.9392 55.1837 91.7741 55.7451 91.5099C56.1744 91.2787 56.5046 90.9485 56.7358 90.6513C56.3725 90.7833 55.9432 90.8494 55.4809 90.8164Z" fill="#FFDB00"/>
<path fill-rule="evenodd" clip-rule="evenodd" d="M41.5449 97.7186V106.833C43.7906 102.771 43.9557 98.6763 42.0733 94.0859L41.5449 97.7186Z" fill="#FFDB00"/>
<path fill-rule="evenodd" clip-rule="evenodd" d="M44.6822 77.4412L45.3757 79.2906C45.772 80.2483 46.4985 81.4041 47.159 81.6023C47.2581 81.6353 47.3572 81.6353 47.4562 81.6353C47.9846 81.7344 48.546 81.5692 49.1074 81.4371L49.2395 81.4041C49.6028 81.305 49.9991 81.206 50.3624 81.1399C49.9991 79.4887 47.9186 78.1017 44.6822 77.4412ZM44.5171 77.4082L42.3375 92.4342C44.1208 96.1659 45.9371 101.879 41.5449 108.583V109.64L41.5779 109.607C41.9412 109.21 42.3705 108.748 42.6677 108.352C43.1301 107.757 43.4273 107.394 43.6254 107.13C43.9227 106.8 44.0217 106.635 44.1538 106.436C45.772 101.978 46.9939 96.6282 43.7245 90.9481L43.6585 90.849L44.6162 77.4082C44.5831 77.4082 44.5501 77.4082 44.5171 77.4082Z" fill="#FFDB00"/>
<path fill-rule="evenodd" clip-rule="evenodd" d="M44.583 90.6182C46.6965 95.869 46.8286 100.525 45.937 103.861C49.1073 100.724 45.4747 90.7173 44.616 90.354L44.583 90.6182Z" fill="#FFDB00"/>
<path fill-rule="evenodd" clip-rule="evenodd" d="M37.5488 38.7042C37.78 39.1005 38.7377 40.6196 39.3321 41.4782L40.0917 36.4916C39.6954 36.3265 39.0679 36.0293 38.7707 35.8972C38.3744 35.699 37.9451 35.4679 37.5488 35.3027V38.7042Z" fill="#FFDB00"/>
<path fill-rule="evenodd" clip-rule="evenodd" d="M32.0664 53.532L33.6185 54.3246L33.5855 52.4092L32.0664 53.532Z" fill="#FFDB00"/>
<path fill-rule="evenodd" clip-rule="evenodd" d="M35.2695 55.1505L36.8217 55.9431L36.1612 53.7305L35.2695 55.1505Z" fill="#FFDB00"/>
<path fill-rule="evenodd" clip-rule="evenodd" d="M31.5381 28.6982V28.7312C31.5381 28.7642 31.5711 28.8633 31.7032 29.0284C32.4958 29.9201 35.8312 30.9108 38.9025 31.142C37.4824 30.4154 36.4257 29.788 35.7652 29.3257L35.1377 29.2266C33.8167 28.9954 32.6609 28.8303 31.5711 28.5991C31.5711 28.6321 31.5381 28.6652 31.5381 28.6982Z" fill="#FFDB00"/>
<path fill-rule="evenodd" clip-rule="evenodd" d="M36.5908 52.0793L37.3834 54.5891L37.9448 50.7583C37.5485 51.1876 36.9541 51.8151 36.5908 52.0793Z" fill="#FFDB00"/>
<path fill-rule="evenodd" clip-rule="evenodd" d="M34.576 50.3617V54.5888L36.1281 52.0129L35.8309 47.0593C34.9393 48.6445 33.7504 49.8003 32.3304 50.4938C31.5378 50.8901 30.2829 51.1213 30.2499 51.1213L29.7875 51.2204L30.0187 50.8241C30.481 50.0645 31.5048 48.4794 32.0662 47.5547C31.1085 48.017 29.9196 48.4463 29.3582 48.5784C28.9289 48.6775 28.3014 48.7436 27.674 48.5454C27.674 48.5454 26.5181 48.1491 25.4283 46.9272C24.9 46.2998 24.2725 45.243 24.1404 44.3844C23.9423 42.9643 23.4469 41.9076 22.5883 41.0489C22.0599 40.5206 21.3333 40.2894 21.0361 40.2233H21.0031L20.838 40.1573C20.3096 40.0582 19.7152 40.0252 19.0547 40.1243C19.1538 40.3554 19.3519 40.6857 19.5831 40.9169C20.6729 40.9499 21.5645 41.3131 22.159 41.9736C23.0836 42.9974 22.8855 44.7807 22.7204 45.9365C22.6873 46.3658 22.6213 46.7621 22.6543 46.9272C22.8855 47.8519 24.1074 48.9087 25.0981 49.7343C25.4283 50.0315 26.7493 50.9231 27.74 51.4185L31.0094 53.0037L34.576 50.3617Z" fill="#FFDB00"/>
<path fill-rule="evenodd" clip-rule="evenodd" d="M28.8965 46.9271C29.2597 47.0262 29.7881 47.1583 30.3495 47.1252C30.5807 47.1252 31.5054 46.9931 33.0245 46.0024L34.3455 44.7805C34.3455 44.7805 34.7748 43.5256 34.6427 41.9074C34.6097 41.6102 34.5766 41.2469 34.5436 40.8837C34.0152 42.7991 33.1566 43.9879 32.0007 44.3842C31.8356 44.6154 31.6045 44.9456 31.3072 45.3089L31.2082 45.408C30.8779 45.7052 29.9863 46.4647 28.8965 46.9271ZM36.6571 43.1293L37.0204 50.2955C37.1195 50.1965 37.2186 50.0974 37.3176 49.9983C37.6148 49.7011 37.9121 49.4039 38.1763 49.1397L39.1009 42.9312C38.6716 42.3037 37.9121 41.0488 37.4497 40.3223C37.2186 42.3037 33.3217 45.3089 33.3217 45.3089C33.2557 45.441 32.5622 48.5122 31.8026 49.7672C33.5199 49.0076 34.9069 47.3234 35.7985 44.9787L36.6571 43.1293Z" fill="#FFDB00"/>
<path fill-rule="evenodd" clip-rule="evenodd" d="M31.6704 36.2937C31.9346 36.8221 32.3969 37.8128 32.6611 38.9357C32.8592 38.4733 32.9913 37.9119 33.0244 37.2845C33.1234 36.0956 32.7271 34.2793 32.7271 34.2462L32.6281 33.85L33.4867 34.2462C34.6425 34.8407 35.6993 35.7984 36.624 37.1524V34.0151L37.2184 34.2132C37.8459 34.4114 38.4403 34.7086 39.0347 35.0058C38.3082 33.916 37.2184 32.1657 36.9873 31.7364C35.4351 31.5052 32.0336 30.8778 30.9769 29.6559C30.9438 29.6229 30.9438 29.5898 30.9108 29.5898C30.6466 29.821 30.3164 29.9531 29.9531 30.0192C30.0522 30.8117 30.4155 31.7364 30.7127 32.3639L30.7787 32.4629V33.6518L30.8448 33.7509C31.4062 34.5435 32.0006 35.3691 31.6704 36.2937Z" fill="#FFDB00"/>
<path fill-rule="evenodd" clip-rule="evenodd" d="M32.8265 40.3227V40.6859C32.8265 41.4785 32.7935 42.139 32.5293 42.9976C34.5438 40.8841 34.4777 37.0533 34.4777 37.0533C34.4777 37.0533 36.0299 40.0255 35.3694 42.3041C36.0299 41.3464 36.6243 40.719 36.6243 38.9357C36.0629 37.8789 35.1712 36.4919 33.8833 35.5342C33.9824 36.2937 33.9824 36.9872 33.9163 37.6147C33.8172 38.7375 33.454 39.6292 32.8265 40.3227Z" fill="#FFDB00"/>
<path fill-rule="evenodd" clip-rule="evenodd" d="M28.0703 27.6743C28.5326 28.632 29.1271 29.1604 29.4573 29.1604C30.0187 29.1604 30.5801 28.8632 30.6792 28.3678L28.0703 27.6743Z" fill="#FFDB00"/>
<path fill-rule="evenodd" clip-rule="evenodd" d="M25.6602 26.7827L29.623 32.0996C29.3589 31.4391 29.0947 30.6796 29.0286 29.9861C28.137 29.6888 27.3444 28.4669 26.9151 27.2781C26.4527 27.146 26.0234 26.9478 25.6602 26.7827Z" fill="#FFDB00"/>
<path fill-rule="evenodd" clip-rule="evenodd" d="M21.7962 29.6229C21.8292 29.6229 21.8622 29.6229 21.8952 29.6229C23.1171 29.6559 23.9427 30.0522 24.7023 30.4485C25.0986 30.6136 25.4288 30.7787 25.7921 30.9108C25.8581 30.9108 27.2121 31.3401 28.1698 31.6704L24.2069 26.3865C24.0088 26.3205 23.0841 26.1553 21.631 26.7498C21.0036 26.9809 20.5412 27.4102 20.3101 28.0047C20.0129 28.6652 20.0129 29.4908 20.244 30.3164C20.277 30.2503 20.3101 30.2173 20.3431 30.1843C20.7064 29.821 21.2017 29.6229 21.7962 29.6229Z" fill="#FFDB00"/>
<path fill-rule="evenodd" clip-rule="evenodd" d="M17.2061 31.1748C18.5931 32.859 20.7727 33.7507 23.6788 33.8167C24.0751 32.859 25.0988 32.2976 26.5849 32.0995C26.2877 32.0004 25.9905 31.9013 25.8584 31.8683C24.9997 32.1986 20.9048 32.2976 19.9471 32.1325C18.9563 32.0004 18.1638 31.6371 17.2061 31.1748Z" fill="#FFDB00"/>
<path fill-rule="evenodd" clip-rule="evenodd" d="M25.3301 25.6265C27.3115 26.7163 30.1846 27.5088 34.841 28.3014C35.6336 28.4005 36.3271 28.4665 36.8555 28.4335C35.5015 27.9051 33.454 27.0795 31.5056 26.2539C29.293 25.3293 26.8162 24.3055 26.5189 24.2725C26.0236 24.2395 25.4952 25.032 25.3301 25.6265Z" fill="#FFDB00"/>
<path fill-rule="evenodd" clip-rule="evenodd" d="M27.5753 32.958C26.0892 32.958 24.7022 33.3213 24.438 34.378C24.2069 35.2367 24.2069 36.0623 24.438 36.8879C25.1315 35.5339 26.0232 34.6753 27.8065 34.6753C28.9293 34.6753 29.9861 34.9395 30.8117 35.5009C30.7126 35.1706 30.4484 34.8074 30.1182 34.279L29.953 34.0808L29.2265 33.0901C28.6981 33.0241 28.1367 32.958 27.5753 32.958Z" fill="#FFDB00"/>
<path fill-rule="evenodd" clip-rule="evenodd" d="M49.4699 20.8384C49.1066 20.8384 48.7764 21.1356 48.7764 21.5319C48.7764 21.9282 49.1066 22.2254 49.4699 22.2254C49.8662 22.2254 50.1964 21.9282 50.1964 21.5319C50.1964 21.1356 49.8662 20.8384 49.4699 20.8384Z" fill="#FFDB00"/>
<path fill-rule="evenodd" clip-rule="evenodd" d="M50.4609 18.5267L51.2535 18.7579C51.2865 18.4606 51.3196 18.1634 51.3196 17.8662L50.4609 18.5267Z" fill="#FFDB00"/>
<path fill-rule="evenodd" clip-rule="evenodd" d="M48.7441 22.82C48.9753 23.0511 49.1074 23.3483 49.1735 23.6456C49.3716 23.3814 49.5037 23.1502 49.6688 22.919C49.3716 22.9521 49.0744 22.886 48.8102 22.7539C48.7772 22.7539 48.7772 22.7869 48.7441 22.82Z" fill="#FFDB00"/>
<path fill-rule="evenodd" clip-rule="evenodd" d="M60.2032 84.0132L60.4014 84.1123C60.4014 83.9142 60.4014 83.716 60.4014 83.5509C60.4014 83.1876 60.4344 82.7583 60.5004 82.329V82.263C60.0711 82.0318 59.7409 81.8667 59.4767 81.5694C58.6181 80.7438 58.1227 79.7531 57.6273 78.8284C57.4292 78.4982 57.2641 78.201 57.099 77.8708C56.2403 76.3516 55.3817 74.9316 53.8296 73.7427C53.4333 73.5776 52.9709 73.3795 52.4756 73.2144L52.7398 73.7758L53.07 74.4362C55.9431 76.7479 57.7264 79.588 58.4199 82.8244C58.519 83.2207 59.1795 83.683 60.2362 84.0793L60.2032 84.0132Z" fill="#FFDB00"/>
<path fill-rule="evenodd" clip-rule="evenodd" d="M48.0176 19.0222L50.4614 19.6166L50.6265 19.3855L48.7441 18.9231L50.9237 17.1729L48.0176 19.0222ZM49.8339 20.178C49.8669 20.178 49.933 20.2111 49.966 20.2111L50.3953 19.6497L50.2632 19.7818C50.1311 19.9139 49.966 20.0459 49.8339 20.178Z" fill="#FFDB00"/>
<path fill-rule="evenodd" clip-rule="evenodd" d="M32.793 12.1199L33.4535 13.7051L34.147 13.0446L33.5855 11.7236C33.2883 11.8557 33.0241 11.9548 32.793 12.1199Z" fill="#FFDB00"/>
<path fill-rule="evenodd" clip-rule="evenodd" d="M66.9065 77.8379C65.1232 77.8379 63.505 78.6305 62.4482 79.9184L72.5536 82.3292C71.9922 79.7533 69.6805 77.8379 66.9065 77.8379Z" fill="#FFDB00"/>
<path fill-rule="evenodd" clip-rule="evenodd" d="M70.4076 67.5674C71.4643 68.5912 72.2239 69.1526 72.8514 69.3507C73.0165 69.4168 73.5118 69.5159 73.6439 69.5159C74.4035 69.5819 74.8988 69.5819 75.13 69.5489C75.097 69.3177 75.0309 68.9875 74.9979 68.8554L74.9649 68.8224C73.776 63.7036 72.7853 62.1515 71.7285 60.5003C71.6295 60.3021 71.4974 60.104 71.3653 59.9389C70.1764 59.9059 69.2517 59.5426 68.5252 59.1133C68.5582 59.3444 68.5912 59.5756 68.5912 59.5756L68.6243 59.8398H68.3931C68.3931 59.8398 68.261 59.8398 68.1289 59.8398C69.1857 61.8213 69.9783 64.5623 70.4076 67.5674Z" fill="#FFDB00"/>
<path fill-rule="evenodd" clip-rule="evenodd" d="M60.4346 76.8475C60.963 77.3759 61.2271 77.7062 61.6234 78.4327C61.7225 78.5978 61.8546 78.862 61.9867 79.1262L62.0528 79.2253C62.1518 79.1592 62.2509 79.0271 62.383 78.928L62.2509 78.4987C62.0197 77.475 61.5904 76.6494 60.9299 75.9229C60.7648 76.2861 60.5667 76.6494 60.4346 76.8475Z" fill="#FFDB00"/>
<path fill-rule="evenodd" clip-rule="evenodd" d="M67.1377 77.2766C67.9303 77.3096 68.7229 77.5077 69.4164 77.805C69.4494 77.4417 69.5485 76.7482 69.5815 76.418L67.4019 76.0547L67.1377 77.2766Z" fill="#FFDB00"/>
<path fill-rule="evenodd" clip-rule="evenodd" d="M39.2988 12.186L39.497 13.3089L39.7612 12.5163L39.2988 12.186Z" fill="#FFDB00"/>
<path fill-rule="evenodd" clip-rule="evenodd" d="M39.9593 15.9505L40.1905 14.9928L39.6621 14.2002L39.9593 15.9505Z" fill="#FFDB00"/>
<path fill-rule="evenodd" clip-rule="evenodd" d="M40.6861 14.5639H41.3465L41.974 13.6393L41.7098 12.8467H40.3228L40.0586 13.6393L40.6861 14.5639Z" fill="#FFDB00"/>
<path fill-rule="evenodd" clip-rule="evenodd" d="M40.1576 9.97331H41.8749L42.7005 9.4119L42.2051 8.65234H39.8274L39.332 9.4119L40.1576 9.97331Z" fill="#FFDB00"/>
<path fill-rule="evenodd" clip-rule="evenodd" d="M38.6709 19.6824C39.1993 20.1447 39.6946 20.6731 40.223 21.2345L39.5295 18.8237L38.6709 19.6824Z" fill="#FFDB00"/>
<path fill-rule="evenodd" clip-rule="evenodd" d="M38.8691 9.87402L39.1003 11.0959L39.6287 10.3694L38.8691 9.87402Z" fill="#FFDB00"/>
<path fill-rule="evenodd" clip-rule="evenodd" d="M36.4261 11.0635C36.1949 11.0635 35.9638 11.0965 35.7656 11.1295L35.8977 11.5258L36.4261 11.0635Z" fill="#FFDB00"/>
<path fill-rule="evenodd" clip-rule="evenodd" d="M34.874 13.2099L35.4024 14.4979L36.0959 13.8374L35.6666 12.4834L34.874 13.2099Z" fill="#FFDB00"/>
<path fill-rule="evenodd" clip-rule="evenodd" d="M34.1475 11.4924L34.6098 12.6152L35.4354 11.8557L35.2373 11.2612C34.841 11.3273 34.4777 11.3933 34.1475 11.4924Z" fill="#FFDB00"/>
<path fill-rule="evenodd" clip-rule="evenodd" d="M38.1758 18.0642L38.473 19.0219L39.3316 18.1633L39.0344 17.2056L38.1758 18.0642Z" fill="#FFDB00"/>
<path fill-rule="evenodd" clip-rule="evenodd" d="M37.4824 16.05L37.9448 17.437L38.8694 16.5454L38.4731 15.1914L37.4824 16.05Z" fill="#FFDB00"/>
<path fill-rule="evenodd" clip-rule="evenodd" d="M36.7891 14.0023L37.2844 15.4223L38.2751 14.5637L37.8128 12.9785L36.7891 14.0023Z" fill="#FFDB00"/>
<path fill-rule="evenodd" clip-rule="evenodd" d="M36.1289 12.0542L36.5912 13.3421L37.615 12.3184L37.2847 11.0635C37.2517 11.0635 37.2517 11.0635 37.2517 11.0635C37.2187 11.0635 37.2187 11.0635 37.1857 11.0635L36.1289 12.0542Z" fill="#FFDB00"/>
<path fill-rule="evenodd" clip-rule="evenodd" d="M43.1631 16.5454L44.0547 17.437L44.5171 16.05L43.5594 15.1914L43.1631 16.5454Z" fill="#FFDB00"/>
<path fill-rule="evenodd" clip-rule="evenodd" d="M45.9365 13.8369L46.597 14.4974L47.1584 13.2094L46.3658 12.4829L45.9365 13.8369Z" fill="#FFDB00"/>
<path fill-rule="evenodd" clip-rule="evenodd" d="M46.2669 11.129C46.0358 11.096 45.8376 11.063 45.6064 11.063L46.1018 11.5253L46.2669 11.129Z" fill="#FFDB00"/>
<path fill-rule="evenodd" clip-rule="evenodd" d="M44.3848 12.3179L45.4415 13.3417L45.8708 12.0537L44.8141 11.063H44.7811H44.748L44.3848 12.3179Z" fill="#FFDB00"/>
<path fill-rule="evenodd" clip-rule="evenodd" d="M43.7236 14.5637L44.7474 15.4223L45.2097 14.0023L44.186 12.9785L43.7236 14.5637Z" fill="#FFDB00"/>
<path fill-rule="evenodd" clip-rule="evenodd" d="M49.041 14.1341L49.8336 14.8606L50.5271 13.3085C50.428 13.1434 50.2959 13.0113 50.1638 12.8792C50.0648 12.7471 49.8996 12.615 49.7345 12.4829L49.041 14.1341Z" fill="#FFDB00"/>
<path fill-rule="evenodd" clip-rule="evenodd" d="M47.8848 13.0446L48.5452 13.7051L49.2388 12.1199C49.0076 11.9548 48.7434 11.8557 48.4462 11.7236L47.8848 13.0446Z" fill="#FFDB00"/>
<path fill-rule="evenodd" clip-rule="evenodd" d="M46.5645 11.8557L47.3901 12.6152L47.8524 11.4924C47.5552 11.3933 47.1919 11.3273 46.7956 11.2612L46.5645 11.8557Z" fill="#FFDB00"/>
<path fill-rule="evenodd" clip-rule="evenodd" d="M40.1909 12.0541H41.8421L42.4696 11.5917L41.8091 10.7661H41.0165H40.1909L39.5635 11.5917L40.1909 12.0541Z" fill="#FFDB00"/>
<path fill-rule="evenodd" clip-rule="evenodd" d="M42.5347 13.3089L42.7328 12.186L42.2705 12.5163L42.5347 13.3089Z" fill="#FFDB00"/>
<path fill-rule="evenodd" clip-rule="evenodd" d="M50.3291 15.29L51.0226 15.9505C51.1547 15.9505 51.2868 15.9175 51.4189 15.9175C51.3198 15.1579 51.1547 14.4974 50.8905 13.936L50.3291 15.29Z" fill="#FFDB00"/>
<path fill-rule="evenodd" clip-rule="evenodd" d="M42.0728 15.9505L42.37 14.2002L41.8086 14.9928L42.0728 15.9505Z" fill="#FFDB00"/>
<path fill-rule="evenodd" clip-rule="evenodd" d="M42.9317 11.0964L43.1299 9.87451L42.4033 10.3699L42.9317 11.0964Z" fill="#FFDB00"/>
<path fill-rule="evenodd" clip-rule="evenodd" d="M42.5021 18.8237L41.8086 21.2675C42.1388 20.9042 42.6672 20.3759 43.3277 19.7154L43.3607 19.6824L42.5021 18.8237Z" fill="#FFDB00"/>
<path fill-rule="evenodd" clip-rule="evenodd" d="M42.7002 18.1633L43.5258 19.0219L43.856 18.0642L42.9644 17.2056L42.7002 18.1633Z" fill="#FFDB00"/>
<path fill-rule="evenodd" clip-rule="evenodd" d="M46.2336 29.3257C45.5071 29.821 44.4833 30.4154 43.0303 31.175C46.3657 31.0429 49.536 29.9531 50.3286 29.0284C50.4277 28.8963 50.4607 28.7642 50.4607 28.6652C50.4607 28.6652 50.4607 28.6321 50.4607 28.5991C49.3709 28.8303 48.2481 28.9954 46.9271 29.2266L46.2336 29.3257Z" fill="#FFDB00"/>
<path fill-rule="evenodd" clip-rule="evenodd" d="M48.4461 52.4092L48.4131 54.3246L49.9652 53.532L48.4461 52.4092Z" fill="#FFDB00"/>
<path fill-rule="evenodd" clip-rule="evenodd" d="M41.9404 36.4916L42.7 41.4782C43.2944 40.6196 44.2521 39.1005 44.4833 38.7042V35.3027C44.054 35.4679 43.6577 35.699 43.2284 35.8972C42.9312 36.0623 42.3367 36.3265 41.9404 36.4916Z" fill="#FFDB00"/>
<path fill-rule="evenodd" clip-rule="evenodd" d="M45.8703 53.7305L45.1768 55.9431L46.7619 55.1505L45.8703 53.7305Z" fill="#FFDB00"/>
<path fill-rule="evenodd" clip-rule="evenodd" d="M51.3193 28.4008C51.4514 28.8632 52.0128 29.1604 52.5412 29.1604C52.9045 29.1604 53.4659 28.665 53.9282 27.6743C53.1687 27.9385 52.277 28.1697 51.3193 28.4008Z" fill="#FFDB00"/>
<path fill-rule="evenodd" clip-rule="evenodd" d="M54.2259 34.6756C56.0092 34.6756 56.9008 35.5342 57.5613 36.8882C57.7925 36.0626 57.7925 35.237 57.5944 34.3784C57.2311 32.9584 54.8203 32.7932 52.8059 33.0905L51.9803 34.2133L51.9142 34.2793C51.5509 34.8077 51.3198 35.171 51.2207 35.5012C52.0133 34.9728 53.037 34.6756 54.1268 34.6756H54.2259Z" fill="#FFDB00"/>
<path fill-rule="evenodd" clip-rule="evenodd" d="M49.3707 33.85L49.2056 34.7416C49.0075 35.6993 48.9744 36.5579 49.0075 37.2845C49.0075 37.8789 49.1396 38.4403 49.3707 38.9357C49.6019 37.8128 50.0972 36.8551 50.3614 36.2937C50.0972 35.5342 50.4275 34.8407 50.9559 34.1141H50.9229L51.2531 33.6518V32.4629L51.2861 32.3639C51.6164 31.7364 51.9466 30.8117 52.0787 30.0192C51.7154 29.9531 51.3852 29.821 51.121 29.5898C51.088 29.6229 51.088 29.6229 51.0549 29.6559C49.9982 30.8778 46.5637 31.5052 45.0446 31.7364C44.7804 32.1657 43.7236 33.916 42.9971 35.0058C43.5915 34.7086 44.1859 34.4114 44.7804 34.2132L45.4078 34.0151V37.1524C46.2995 35.7984 47.3563 34.8407 48.5451 34.2462L49.3707 33.85Z" fill="#FFDB00"/>
<path fill-rule="evenodd" clip-rule="evenodd" d="M47.6538 36.1947L47.819 37.1524C47.819 37.1854 47.852 37.4826 47.885 37.7798C47.918 38.077 47.9511 38.4073 47.9511 38.4403C48.2153 40.2566 48.6446 42.3371 49.6023 43.1627C49.272 42.172 49.239 41.3464 49.206 40.3227C48.5785 39.6292 48.1822 38.5063 48.1162 37.8128H48.1492C48.0501 37.3835 48.0832 36.2937 48.1492 35.5342C46.8613 36.4589 45.9366 37.8789 45.4082 38.9357C45.4082 40.719 45.7715 42.0729 46.4319 43.0306C46.4319 42.3371 46.531 41.5115 46.564 41.1483C46.7622 39.6622 47.1255 38.077 47.3896 37.1193L47.6538 36.1947Z" fill="#FFDB00"/>
<path fill-rule="evenodd" clip-rule="evenodd" d="M44.0547 50.7251L44.6491 54.5889C44.9794 53.6312 45.3426 52.4754 45.4747 52.1121C45.3096 51.947 45.1115 51.7819 44.9133 51.5837C44.6491 51.2865 44.3189 50.9893 44.0547 50.7251Z" fill="#FFDB00"/>
<path fill-rule="evenodd" clip-rule="evenodd" d="M55.415 32.0995C56.9341 32.2976 57.9579 32.859 58.3542 33.8167C61.2603 33.7507 63.4399 32.859 64.8269 31.1748C63.8362 31.6371 63.0766 32.0004 62.0859 32.1325C61.0952 32.2976 57.0332 32.1986 56.1746 31.8683C56.0425 31.9013 55.7453 32.0004 55.415 32.0995Z" fill="#FFDB00"/>
<path fill-rule="evenodd" clip-rule="evenodd" d="M47.8521 45.2429L49.0079 46.0024C50.494 46.9931 51.4187 47.1252 51.6828 47.1252C52.2112 47.1583 52.7066 47.0592 53.0699 46.9271C51.7819 46.4978 50.9893 45.6391 50.494 45.0117C50.4279 44.9126 50.3289 44.7475 50.2298 44.5824C50.1968 44.5493 50.1637 44.4833 50.1307 44.4503C48.6116 44.054 47.9181 42.6009 47.4888 40.9167C47.4558 41.28 47.3897 41.5772 47.3897 41.8744C47.2576 43.8889 47.6539 44.8135 47.6539 44.8135L47.8521 45.2429ZM43.8561 49.1397C44.0873 49.4039 44.3845 49.6681 44.6817 49.9653C44.8138 50.0644 44.9129 50.1634 45.045 50.2955L45.3752 43.1293L46.2008 44.9456C47.0925 47.3234 48.5125 49.0076 50.2298 49.7672C49.4702 48.5122 48.0172 45.9033 47.9511 45.7712L47.6869 45.3089L46.7953 44.6484C45.5404 43.7237 44.8138 42.3037 44.5827 40.3223C44.1203 41.0488 43.3278 42.3367 42.8984 42.9312L43.8561 49.1397Z" fill="#FFDB00"/>
<path fill-rule="evenodd" clip-rule="evenodd" d="M45.9033 52.0129L47.4555 54.5558V50.3617L50.989 53.0037L54.2914 51.4185C55.2491 50.9232 56.6031 50.0315 56.9003 49.7343C57.858 48.9417 59.146 47.8519 59.3441 46.9272C59.3771 46.7621 59.3441 46.3658 59.2781 45.9365C59.146 44.7807 58.9478 42.9974 59.8725 41.9736C60.4669 41.3131 61.3256 40.9499 62.4484 40.9169C62.6796 40.6857 62.8777 40.3554 62.9768 40.1243C62.3163 40.0252 61.7219 40.0582 61.1935 40.1573L60.9953 40.2233C60.6651 40.2894 59.9716 40.5206 59.4432 41.0489C58.5846 41.9076 58.0892 42.9643 57.8911 44.3844C57.759 45.243 57.0985 46.2998 56.6031 46.9272C55.5133 48.1161 54.3575 48.5454 54.3575 48.5454C53.73 48.7436 53.1026 48.6775 52.6733 48.6115C52.1118 48.4463 50.89 48.017 49.9323 47.5547C50.4937 48.4794 51.5174 50.0645 51.9798 50.8241L52.2439 51.2204L51.7816 51.1213C51.7156 51.1213 50.4937 50.8901 49.6681 50.4938C48.2811 49.8003 47.0922 48.6445 46.2005 47.0593L45.9033 52.0129Z" fill="#FFDB00"/>
<path fill-rule="evenodd" clip-rule="evenodd" d="M45.1768 28.4337C45.7382 28.4667 46.4317 28.4337 47.1912 28.3016C51.8476 27.509 54.7207 26.7164 56.6691 25.6266C56.504 25.0652 55.6784 24.3057 55.4142 24.3057C55.1831 24.3387 53.1025 25.1973 51.055 26.0229C48.9745 26.9146 46.6298 27.8723 45.1768 28.4337Z" fill="#FFDB00"/>
<path fill-rule="evenodd" clip-rule="evenodd" d="M52.9706 29.9861C52.9045 30.7126 52.6734 31.4721 52.4092 32.0996L56.3721 26.7827C55.9758 26.9478 55.5795 27.146 55.1172 27.2781C54.6878 28.4669 53.8622 29.6888 52.9706 29.9861Z" fill="#FFDB00"/>
<path fill-rule="evenodd" clip-rule="evenodd" d="M57.7922 26.3863L53.8623 31.6702C54.787 31.3399 56.141 30.9436 56.24 30.9106C56.6033 30.7785 56.9335 30.6134 57.2968 30.4483C58.0894 30.052 58.915 29.6557 60.1369 29.6227C60.7643 29.6227 61.2927 29.7548 61.689 30.118C61.722 30.118 61.7551 30.151 61.7551 30.151C61.9862 28.9622 62.0193 27.278 60.4011 26.7496C59.0801 26.2872 58.0894 26.3533 57.7922 26.3863Z" fill="#FFDB00"/>
<path fill-rule="evenodd" clip-rule="evenodd" d="M52.7395 57.3301L52.2441 58.3208C52.5083 58.4859 52.8056 58.5189 53.0037 58.4859C52.9376 58.0896 52.8386 57.6603 52.7395 57.3301Z" fill="#FFDB00"/>
<path fill-rule="evenodd" clip-rule="evenodd" d="M62.5474 50.9895C62.2172 51.1546 61.8209 51.1876 61.3916 51.0886C62.8777 52.7728 64.0996 55.2826 64.661 57.8915L64.694 57.9906C65.6517 58.585 66.5103 58.8492 67.5671 58.9153C67.5341 58.7832 67.5011 58.6181 67.435 58.3539C67.2369 57.3962 66.048 52.7068 63.0428 50.4941C62.9107 50.7583 62.7126 50.9235 62.5474 50.9895Z" fill="#FFDB00"/>
<path fill-rule="evenodd" clip-rule="evenodd" d="M54.0937 54.7212L53.3672 56.1743C53.5653 56.7687 53.7635 57.5282 53.9286 58.0896C54.1928 58.3869 54.8863 58.552 55.4807 58.4859C55.1175 57.0329 54.5561 55.7119 54.0937 54.7212Z" fill="#FFDB00"/>
<path fill-rule="evenodd" clip-rule="evenodd" d="M62.8785 46.4647C62.4161 46.5637 61.4254 46.5637 60.6328 46.4316C60.6658 46.4977 60.7319 46.5307 60.7979 46.5968C61.4584 47.4224 62.6143 48.8094 63.0436 49.3708C64.2655 49.9652 64.992 49.9652 65.2232 49.8331C65.2562 49.8331 65.2562 49.8331 65.2562 49.734V49.701C65.0911 49.0405 64.1994 47.8847 62.8785 46.4647Z" fill="#FFDB00"/>
<path fill-rule="evenodd" clip-rule="evenodd" d="M67.4021 44.0874C66.9397 44.4507 66.2793 44.4837 65.5527 44.4176C67.303 46.0358 68.7561 47.7201 69.4496 48.975C70.2091 49.3713 71.0347 49.7675 71.332 49.6354C71.431 49.6024 71.5961 49.4703 71.5961 49.3052C71.365 47.8852 69.6807 45.8047 67.4021 44.0874Z" fill="#FFDB00"/>
<path fill-rule="evenodd" clip-rule="evenodd" d="M63.2413 43.7239C62.3496 43.0304 61.557 42.502 60.9626 42.2378C60.8305 42.3369 60.7314 42.4359 60.6324 42.568C60.5333 42.6671 60.4672 42.7992 60.3682 42.9313C60.6984 43.1955 61.1607 43.5588 61.6561 44.0211C62.7459 44.4504 63.6045 44.4834 64.0338 44.4504C63.7366 44.1532 63.2413 43.7239 63.2413 43.7239Z" fill="#FFDB00"/>
<path fill-rule="evenodd" clip-rule="evenodd" d="M57.6605 58.1888C57.066 56.1743 56.0423 53.9947 55.2497 52.5747L54.6553 53.6645C55.3158 55.1176 55.9432 56.7357 56.3725 58.1888C56.5376 58.3539 57.033 58.6842 57.7265 58.5851L57.6605 58.1888Z" fill="#FFDB00"/>
<path fill-rule="evenodd" clip-rule="evenodd" d="M72.0584 58.2547C70.8035 54.9853 69.7468 52.3764 68.2277 50.7582C67.6993 50.7582 67.0718 50.6261 66.015 50.2959C65.949 50.428 65.8169 50.5271 65.6848 50.6261C65.4536 50.7582 65.1894 50.8243 64.8262 50.8243C65.6848 51.6829 66.1141 52.4094 66.4444 53.0369L66.6095 53.3341C67.369 54.6551 67.9965 56.6035 68.3267 57.8914C69.4495 58.651 70.5063 59.1794 72.3226 58.9812C72.2566 58.7501 72.1245 58.4198 72.0584 58.2547Z" fill="#FFDB00"/>
<path fill-rule="evenodd" clip-rule="evenodd" d="M57.3957 50.5927C57.3297 50.4936 57.2636 50.4276 57.2306 50.3945C57.0985 50.5266 56.6032 50.8569 56.5701 50.8899H56.5371C56.7022 50.9229 56.8343 50.9229 56.9994 50.9229C57.3297 50.9229 57.5609 50.8569 57.6269 50.7908C57.5609 50.7578 57.4948 50.6587 57.3957 50.5927Z" fill="#FFDB00"/>
<path fill-rule="evenodd" clip-rule="evenodd" d="M58.2877 51.1215C58.2547 51.1545 58.2547 51.1875 58.2217 51.2206C59.9389 52.9378 60.7315 55.3155 61.4911 57.9575C61.7553 58.7831 62.8451 58.9152 63.9679 58.9152C63.9348 58.618 63.9018 58.2547 63.8358 57.9575C62.779 54.0606 61.425 52.2443 60.071 50.9233C59.6087 51.2206 58.8161 51.1875 58.2877 51.1215Z" fill="#FFDB00"/>
<path fill-rule="evenodd" clip-rule="evenodd" d="M57.2966 51.5836C57.0655 51.5836 56.5701 51.6497 56.0417 51.5176L55.8105 51.6497C56.8343 53.3339 57.858 55.6126 58.5185 57.8582C59.0139 58.3205 59.7404 58.5847 60.7311 58.6178C60.6981 58.4857 60.6321 58.3205 60.6321 58.1884C59.7734 55.3153 59.0469 53.1358 57.3297 51.5836C57.3297 51.5836 57.3297 51.5836 57.2966 51.5836Z" fill="#FFDB00"/>
<path fill-rule="evenodd" clip-rule="evenodd" d="M62.7128 41.8086C62.5146 41.8086 62.3165 41.8416 62.1514 41.8416C62.7788 42.2049 63.5054 42.7333 64.2649 43.3607C64.7603 43.5258 66.0152 43.6579 66.5766 43.5258C65.1566 42.5681 63.7695 41.9407 62.7128 41.8086Z" fill="#FFDB00"/>
<path fill-rule="evenodd" clip-rule="evenodd" d="M58.5523 49.5035C58.3211 49.7347 58.1229 49.9328 57.9248 50.131C57.9578 50.164 57.9578 50.164 58.0239 50.197C58.189 50.3622 58.7834 50.3952 59.1467 50.3622C59.4109 50.3291 59.6421 50.197 59.6751 50.164C59.576 49.9328 59.3779 49.5366 58.9816 49.0742C58.8165 49.2063 58.6844 49.3714 58.5523 49.5035Z" fill="#FFDB00"/>
<path fill-rule="evenodd" clip-rule="evenodd" d="M63.1094 45.3423L63.1754 45.3753C64.7276 46.9935 65.8174 48.4796 66.1146 49.4043C66.742 49.6024 68.1951 50.0317 68.5253 49.8006C68.5584 49.7675 68.6574 49.6354 68.6574 49.4043C68.5584 48.5126 65.6522 45.8047 64.8597 45.0781C64.4634 45.4084 63.7038 45.4084 63.1094 45.3423Z" fill="#FFDB00"/>
<path fill-rule="evenodd" clip-rule="evenodd" d="M60.1037 43.8892C60.0707 44.3185 60.0707 44.8138 60.1367 45.3752C60.6651 45.6064 61.5568 45.6725 62.0191 45.6394C61.5238 45.1441 60.5991 44.3185 60.1037 43.8892Z" fill="#FFDB00"/>
<path fill-rule="evenodd" clip-rule="evenodd" d="M60.1704 47.4561C60.0714 47.7202 59.9062 48.0505 59.543 48.4468C59.7411 48.711 59.9393 48.9752 60.1374 49.2394C60.2365 49.3715 60.3355 49.5035 60.4016 49.6026C61.4584 50.3622 61.8547 50.2631 62.0528 50.2301C62.1188 50.2301 62.2509 50.164 62.284 50.065C62.317 50.0319 62.317 49.9989 62.317 49.9329C62.0528 49.4045 61.0291 48.2817 60.1704 47.4561Z" fill="#FFDB00"/>
<path fill-rule="evenodd" clip-rule="evenodd" d="M74.2381 50.5931C73.3464 50.5271 72.818 50.2298 72.3227 49.9656L72.2896 49.9326C72.1245 50.1968 71.9264 50.3619 71.6622 50.461C71.1008 50.7252 70.4073 50.461 69.4496 49.9987C69.3835 50.1638 69.2844 50.3289 69.1523 50.461C70.6384 52.2113 71.7282 54.8202 72.851 57.8254C74.7004 59.2784 76.1865 59.2784 77.4084 59.0473C77.0121 56.3393 76.0214 53.6974 74.2381 50.5931Z" fill="#FFDB00"/>
<path fill-rule="evenodd" clip-rule="evenodd" d="M70.3741 43.7236C70.0439 44.0208 69.5485 44.1529 68.9541 44.186C70.8365 45.8042 72.1574 47.6205 72.4547 49.0075C72.5868 49.0735 72.6858 49.1396 72.7849 49.1726C73.2803 49.4698 73.6765 49.701 74.5352 49.701C74.6673 49.701 74.7994 49.668 74.8984 49.6349C74.3701 47.1912 72.1905 45.0776 70.3741 43.7236Z" fill="#FFDB00"/>
<path fill-rule="evenodd" clip-rule="evenodd" d="M63.9344 40.3223C63.8353 40.5534 63.7032 40.8176 63.5381 41.0818C64.6939 41.379 66.0479 42.0395 67.4019 42.9972L67.534 43.0302C68.2275 43.2614 69.0861 43.3935 69.5815 43.1623C67.4349 41.6763 65.2553 40.7186 63.9344 40.3223Z" fill="#FFDB00"/>
</svg>
