<svg width="487" height="437" viewBox="0 0 487 437" fill="none" xmlns="http://www.w3.org/2000/svg">
<g opacity="0.08">
<path fill-rule="evenodd" clip-rule="evenodd" d="M331.863 382.169C320.296 392.81 307.805 404.145 294.157 411.547C289.068 414.323 283.979 416.405 278.658 418.487C266.167 423.345 257.377 427.277 246.967 436.067C245.348 437.455 243.729 437.224 241.878 435.836C231.468 427.046 222.678 423.113 210.187 418.256C204.866 416.174 199.777 414.092 194.688 411.316C181.04 403.914 168.549 392.579 156.983 381.938L142.872 383.557L141.947 380.781C135.007 358.574 133.619 334.748 147.498 314.854L151.199 309.534L153.513 315.78C159.296 332.204 168.78 346.777 181.734 358.574L185.898 362.275L180.577 364.126C176.182 365.745 172.481 368.29 169.705 371.76L188.211 380.087C196.076 381.475 203.478 385.87 211.575 381.244C227.305 372.454 228.693 334.517 228.924 319.481L230.081 256.33L230.774 236.436L234.707 118.461H210.187C207.411 118.461 204.866 116.148 204.866 113.141V102.269C204.866 99.4928 207.18 96.9482 210.187 96.9482H223.604C215.507 90.9339 210.418 81.4496 210.418 70.5775C210.418 52.303 225.223 37.7296 243.266 37.7296C261.54 37.7296 276.114 52.5343 276.114 70.5775C276.114 81.4496 270.793 90.9339 262.928 96.9482H277.964C280.74 96.9482 283.285 99.2615 283.285 102.269V113.372C283.285 116.148 280.972 118.693 277.964 118.693H253.675L258.302 256.792L259.459 319.943C259.69 334.748 261.078 372.916 276.808 381.707C284.904 386.333 292.306 381.707 300.171 380.55L318.677 372.222C315.901 368.753 312.2 366.208 307.805 364.589L302.485 362.738L306.648 359.037C319.602 347.24 328.855 332.666 334.87 316.242L337.183 309.997L340.884 315.317C354.764 335.211 353.376 359.037 346.436 381.244L345.511 384.02L331.863 382.169ZM243.729 56.4668C251.594 56.4668 258.071 62.9438 258.071 70.8088C258.071 78.6738 251.594 85.1508 243.729 85.1508C235.864 85.1508 229.387 78.6738 229.387 70.8088C229.387 62.9438 235.864 56.4668 243.729 56.4668Z" fill="#9D9D9D"/>
<path fill-rule="evenodd" clip-rule="evenodd" d="M244.655 112.679H250.669L254.602 236.668L255.296 256.561L256.452 319.713C257.84 405.533 290.919 385.177 301.56 383.326L324.23 373.148C320.76 367.596 315.902 363.433 309.425 361.119C322.842 348.628 332.557 333.823 338.572 316.937C349.675 332.898 351.757 353.948 343.661 379.857L330.707 378.237C317.753 390.266 305.493 401.138 292.539 408.309C276.809 416.868 263.855 417.099 244.886 433.061C244.423 433.292 244.655 433.292 244.192 432.829C225.224 416.868 212.27 416.637 196.54 408.078C183.585 400.907 171.325 390.035 158.371 378.006L145.417 379.625C137.321 353.717 139.403 332.667 150.506 316.705C156.521 333.361 166.005 348.397 179.653 360.888C173.176 363.201 168.087 367.596 164.848 372.917L187.518 383.095C198.159 384.714 231.238 405.071 232.626 319.481L233.783 256.33L234.477 236.436L238.409 112.447H244.655V112.679Z" fill="white"/>
<path fill-rule="evenodd" clip-rule="evenodd" d="M246.273 130.259V406.921C256.683 406.69 265.704 405.533 273.8 403.683C282.591 401.601 290.224 398.825 296.933 395.124C304.798 390.96 312.431 385.408 318.677 378.931C324.229 373.148 329.087 366.671 332.094 359.269C334.407 353.717 336.026 347.471 336.72 340.3C337.414 334.286 337.646 328.04 337.183 321.332C337.183 320.869 336.952 320.638 337.183 320.175L338.571 316.705L340.421 320.175C340.653 320.406 340.421 320.869 340.421 321.1C340.884 328.04 340.653 334.517 339.959 340.763C339.033 348.165 337.414 354.873 335.101 360.657C331.862 368.29 326.773 375.23 320.99 381.476C314.282 388.184 306.417 393.967 298.321 398.362C291.381 402.063 283.516 405.071 274.494 407.152C266.167 409.003 256.914 410.16 246.273 410.391V429.359H242.803V410.391C232.162 410.16 222.909 409.003 214.582 407.152C205.56 405.071 197.695 402.063 190.756 398.362C182.659 393.967 174.794 388.415 168.086 381.476C162.072 375.461 157.214 368.522 153.975 360.657C151.431 354.873 149.811 348.165 149.117 340.763C148.423 334.517 148.192 328.271 148.655 321.1C148.655 320.869 148.655 320.406 148.655 320.175L150.505 316.705L151.893 320.175C152.125 320.638 151.893 320.869 151.893 321.332C151.431 328.04 151.662 334.517 152.356 340.3C153.05 347.24 154.669 353.717 156.982 359.269C159.99 366.671 164.847 373.148 170.399 378.931C176.876 385.408 184.51 390.96 192.143 395.124C198.852 398.825 206.485 401.601 215.276 403.683C223.372 405.533 232.394 406.69 242.803 406.921V130.259H246.273Z" fill="#9D9D9D"/>
<path fill-rule="evenodd" clip-rule="evenodd" d="M244.423 100.419H278.196C279.121 100.419 280.046 101.344 280.046 102.269V113.373C280.046 114.298 279.121 115.223 278.196 115.223H244.423H210.649C209.724 115.223 208.799 114.298 208.799 113.373V102.269C208.799 101.344 209.724 100.419 210.649 100.419H244.423ZM243.729 41.2001C260.153 41.2001 273.338 54.3855 273.338 70.8095C273.338 87.2334 260.153 100.419 243.729 100.419C227.305 100.419 214.119 87.2334 214.119 70.8095C214.119 54.3855 227.536 41.2001 243.729 41.2001ZM243.729 52.7663C253.675 52.7663 261.772 60.8626 261.772 70.8095C261.772 80.7563 253.675 88.8526 243.729 88.8526C233.782 88.8526 225.685 80.7563 225.685 70.8095C225.685 60.8626 233.782 52.7663 243.729 52.7663Z" fill="white"/>
<path fill-rule="evenodd" clip-rule="evenodd" d="M274.957 203.126L274.494 203.357L273.106 202.663C271.256 201.738 269.174 201.275 267.323 200.35L261.771 197.574L267.092 194.336C275.651 189.246 283.978 181.15 290.918 173.979C297.626 167.502 304.335 160.562 311.506 154.548C319.834 147.608 327.467 144.37 338.339 143.445C339.496 143.445 340.421 143.213 341.578 143.213C351.987 142.751 362.397 145.989 372.112 149.228C395.939 157.093 418.84 168.89 443.129 175.136C453.307 176.755 466.723 177.912 476.67 174.21C479.678 173.285 483.379 172.822 485.461 175.598C487.774 178.837 485.923 183.001 483.841 185.545C482.453 187.165 480.834 188.784 479.215 190.172L478.29 192.485C475.745 199.425 470.887 204.051 464.41 205.439C461.172 214.229 456.083 217.237 447.524 217.005C444.285 225.795 438.271 226.489 430.637 226.027L430.406 226.489C427.167 232.504 419.765 233.429 411.9 232.272C410.281 235.048 407.967 237.13 404.96 238.056C399.177 240.137 392.469 238.287 386.223 235.974C385.76 236.668 385.529 237.362 384.604 237.824C377.433 242.451 367.717 240.369 359.158 236.668C358.696 237.362 358.464 237.824 357.539 238.287C337.645 249.39 319.602 226.489 303.41 219.318C302.022 218.624 300.402 218.162 299.94 216.774C297.395 216.311 295.082 214.923 291.612 212.841L274.957 203.126Z" fill="#9D9D9D"/>
<path fill-rule="evenodd" clip-rule="evenodd" d="M274.264 199.656C272.413 198.731 270.331 198.268 268.48 197.343C283.054 188.552 299.709 168.659 313.588 157.324C321.222 150.847 328.393 147.84 338.34 146.914C339.265 146.914 340.422 146.683 341.347 146.683C351.294 146.22 361.472 149.459 370.725 152.466C394.551 160.1 417.915 172.36 442.204 178.374C458.396 180.919 469.731 180.225 477.596 177.218C487.08 173.979 482.917 185.545 472.045 190.172C464.874 193.179 457.24 191.791 449.838 190.403C434.339 187.627 418.84 182.307 402.879 175.598C389.231 169.815 376.508 162.182 362.166 157.786C348.518 153.623 336.952 152.697 327.236 157.093C311.969 164.032 298.321 187.396 274.264 199.656Z" fill="white"/>
<path fill-rule="evenodd" clip-rule="evenodd" d="M321.915 163.107C342.503 146.452 373.963 164.495 395.013 174.211C397.326 175.367 397.789 175.136 397.789 177.68C397.558 179.068 395.938 179.994 393.857 180.456C389.461 181.382 386.223 179.762 382.059 178.143C362.859 170.972 343.891 161.95 322.84 164.032C320.759 164.032 320.065 164.495 321.915 163.107Z" fill="white"/>
<path fill-rule="evenodd" clip-rule="evenodd" d="M390.85 182.77C396.633 182.076 400.103 180.225 400.334 176.755C416.989 184.389 439.427 192.022 460.246 194.104C466.261 194.567 469.962 193.41 474.82 191.791C472.044 199.887 465.567 203.589 457.471 203.126C435.726 201.507 416.064 196.186 390.85 182.77Z" fill="white"/>
<path fill-rule="evenodd" clip-rule="evenodd" d="M311.737 171.666C314.281 169.584 315.901 167.039 319.139 166.577C339.496 162.876 364.71 173.748 382.522 180.687C387.38 182.538 384.372 186.239 380.671 186.933C376.276 187.858 373.037 187.396 368.874 185.777C349.674 178.606 334.407 167.733 312.431 172.591C310.58 173.054 309.655 173.285 311.737 171.666Z" fill="white"/>
<path fill-rule="evenodd" clip-rule="evenodd" d="M376.74 189.246C382.755 189.015 386.918 187.164 387.15 183.695C402.648 190.634 432.026 206.364 461.404 204.514C458.628 212.61 454.233 214.46 446.137 213.998C437.347 213.304 428.788 210.991 419.766 207.983C406.35 203.82 391.776 197.343 376.74 189.246Z" fill="white"/>
<path fill-rule="evenodd" clip-rule="evenodd" d="M303.411 179.531C305.956 177.449 307.806 175.368 310.813 174.674C331.401 169.585 349.444 179.994 367.256 187.396C372.114 189.478 369.569 192.485 365.868 193.179C361.473 194.105 358.235 193.642 354.071 192.023C334.871 184.852 326.312 175.599 304.336 180.457C302.486 180.688 301.56 181.151 303.411 179.531Z" fill="white"/>
<path fill-rule="evenodd" clip-rule="evenodd" d="M361.703 195.492C367.718 195.261 371.881 193.411 372.113 189.941C382.753 194.336 415.37 212.61 444.285 215.849C441.509 223.945 435.726 223.251 427.63 222.789C412.132 221.863 375.351 202.895 361.703 195.492Z" fill="white"/>
<path fill-rule="evenodd" clip-rule="evenodd" d="M296.47 186.471C299.014 184.389 298.783 183.695 301.79 182.77C323.766 176.524 335.795 186.702 353.607 194.104C358.464 196.186 357.076 198.268 353.375 198.962C348.98 199.887 346.204 198.037 342.04 196.649C323.072 190.635 320.296 185.545 297.395 187.165C295.313 187.396 294.619 187.859 296.47 186.471Z" fill="white"/>
<path fill-rule="evenodd" clip-rule="evenodd" d="M349.213 201.506C354.996 201.275 358.466 199.656 358.697 196.186C366.793 199.656 388.075 212.147 410.051 220.244C415.603 222.325 421.617 224.639 427.169 225.101C417.916 242.451 361.01 205.439 349.213 201.506Z" fill="white"/>
<path fill-rule="evenodd" clip-rule="evenodd" d="M290.456 191.097C293.001 189.015 292.538 189.015 295.545 188.784C322.379 187.627 324.923 193.41 340.191 198.499C345.28 200.119 342.735 202.894 339.034 203.126C325.155 204.282 309.425 189.709 292.307 192.022C290.456 192.254 288.374 192.716 290.456 191.097Z" fill="white"/>
<path fill-rule="evenodd" clip-rule="evenodd" d="M336.258 205.902C342.041 205.671 344.817 204.745 344.817 201.276C364.479 209.14 388.999 226.721 409.125 230.191C407.968 232.504 406.117 234.123 403.804 235.049C396.633 237.824 386.455 232.504 380.209 229.497C362.629 221.401 342.735 207.984 336.258 205.902Z" fill="white"/>
<path fill-rule="evenodd" clip-rule="evenodd" d="M322.841 209.371C327.236 208.909 329.78 207.752 331.168 205.208C349.211 213.998 364.941 226.027 383.447 233.892C383.216 234.354 382.984 234.817 382.753 235.048C367.023 244.995 333.713 217.005 322.147 210.297C319.833 209.14 320.759 209.603 322.841 209.371Z" fill="white"/>
<path fill-rule="evenodd" clip-rule="evenodd" d="M304.797 215.155C309.192 214.692 313.356 212.61 315.207 210.528C315.438 210.065 315.669 209.834 315.901 209.371C316.826 209.834 317.751 210.297 318.445 210.991C332.787 219.55 338.802 227.183 356.614 234.354C356.382 234.817 356.151 235.28 355.92 235.511C338.108 245.458 319.833 223.02 304.797 216.311C302.484 215.386 302.253 215.386 304.797 215.155Z" fill="white"/>
<path fill-rule="evenodd" clip-rule="evenodd" d="M285.368 195.26C287.913 193.178 287.45 193.872 290.457 193.641C295.315 193.41 300.173 193.178 304.568 194.566C311.508 196.648 317.985 200.812 325.618 202.663C327.469 203.125 328.394 203.588 328.394 204.051C328.857 205.901 322.842 208.677 318.216 207.752C308.269 205.67 302.949 199.193 287.219 196.417C285.368 195.954 283.518 196.88 285.368 195.26Z" fill="white"/>
<path fill-rule="evenodd" clip-rule="evenodd" d="M293.232 210.065L277.502 200.812L282.822 197.343C285.136 197.343 290.225 198.499 295.776 200.812C301.097 203.126 307.574 205.207 310.581 207.983C313.357 210.528 310.581 211.685 305.723 213.072C299.709 214.46 298.552 213.072 293.232 210.065Z" fill="white"/>
<path fill-rule="evenodd" clip-rule="evenodd" d="M211.575 203.126L212.038 203.357L213.425 202.663C215.276 201.738 217.358 201.275 219.209 200.35L224.76 197.574L219.44 194.336C210.881 189.246 202.553 181.15 195.614 173.979C188.905 167.502 182.197 160.562 175.026 154.548C166.698 147.608 159.065 144.37 148.192 143.445C147.036 143.445 146.111 143.213 144.954 143.213C134.544 142.751 124.135 145.989 114.419 149.228C90.593 157.093 67.9234 168.89 43.4032 175.136C33.225 176.755 19.8083 177.912 9.86137 174.21C6.85417 173.285 3.15302 172.822 1.07111 175.598C-1.24211 178.837 0.608461 183.001 2.69037 185.545C4.0783 187.165 5.69756 188.784 7.31682 190.172L8.24212 192.485C10.7867 199.425 15.6444 204.051 22.1215 205.439C25.36 214.229 30.4491 217.237 39.0081 217.005C42.2466 225.795 48.261 226.489 55.8946 226.027L56.1259 226.489C59.3645 232.504 66.7668 233.429 74.6318 232.272C76.251 235.048 78.5642 237.13 81.5714 238.056C87.3545 240.137 94.0629 238.287 100.309 235.974C100.771 236.668 101.003 237.362 101.928 237.824C109.099 242.451 118.814 240.369 127.373 236.668C127.836 237.362 128.067 237.824 128.993 238.287C148.886 249.39 166.93 226.489 183.122 219.318C184.51 218.624 186.129 218.162 186.592 216.774C189.137 216.311 191.45 214.923 194.92 212.841L211.575 203.126Z" fill="#9D9D9D"/>
<path fill-rule="evenodd" clip-rule="evenodd" d="M212.268 199.656C214.119 198.731 216.201 198.268 218.051 197.343C203.478 188.552 186.823 168.659 172.944 157.324C165.31 150.847 158.139 147.84 148.192 146.914C147.267 146.914 146.11 146.683 145.185 146.683C135.238 146.22 125.06 149.459 115.807 152.466C91.9805 160.1 68.6169 172.36 44.328 178.374C28.1355 180.919 16.8006 180.225 8.93567 177.218C-0.548561 173.979 3.61524 185.545 14.4874 190.172C21.6584 193.179 29.2921 191.791 36.6944 190.403C52.193 187.627 67.6917 182.307 83.6529 175.598C97.301 169.815 110.024 162.182 124.366 157.786C138.014 153.623 149.58 152.697 159.295 157.093C174.563 164.032 188.211 187.396 212.268 199.656Z" fill="white"/>
<path fill-rule="evenodd" clip-rule="evenodd" d="M164.616 163.107C144.028 146.452 112.568 164.495 91.5181 174.211C89.2048 175.367 88.7422 175.136 88.7422 177.68C88.9735 179.068 90.5928 179.994 92.6747 180.456C97.0698 181.382 100.308 179.762 104.472 178.143C123.672 170.972 142.64 161.95 163.691 164.032C165.541 164.032 166.467 164.495 164.616 163.107Z" fill="white"/>
<path fill-rule="evenodd" clip-rule="evenodd" d="M95.4506 182.77C89.6676 182.076 86.1977 180.225 85.9664 176.755C69.3112 184.389 46.8728 192.022 26.0538 194.104C20.0394 194.567 16.3382 193.41 11.4805 191.791C14.2563 199.887 20.7334 203.589 28.8297 203.126C50.8053 201.507 70.4678 196.186 95.4506 182.77Z" fill="white"/>
<path fill-rule="evenodd" clip-rule="evenodd" d="M174.794 171.666C172.25 169.584 170.631 167.039 167.392 166.577C147.036 162.876 121.822 173.748 104.01 180.687C99.1519 182.538 102.159 186.239 105.86 186.933C110.255 187.858 113.494 187.396 117.658 185.777C136.857 178.606 152.125 167.733 174.1 172.591C175.72 173.054 176.645 173.285 174.794 171.666Z" fill="white"/>
<path fill-rule="evenodd" clip-rule="evenodd" d="M109.793 189.246C103.779 189.015 99.6148 187.164 99.3835 183.695C83.8849 190.634 54.5069 206.364 25.1289 204.514C27.9048 212.61 32.2999 214.46 40.3962 213.998C49.1865 213.304 57.7454 210.991 66.767 207.983C80.1837 203.82 94.7571 197.343 109.793 189.246Z" fill="white"/>
<path fill-rule="evenodd" clip-rule="evenodd" d="M183.121 179.531C180.577 177.449 178.726 175.368 175.719 174.674C155.131 169.585 137.088 179.994 119.276 187.396C114.418 189.478 116.963 192.485 120.664 193.179C125.059 194.105 128.298 193.642 132.462 192.023C151.661 184.852 160.22 175.599 182.196 180.457C184.047 180.688 184.972 181.151 183.121 179.531Z" fill="white"/>
<path fill-rule="evenodd" clip-rule="evenodd" d="M124.598 195.492C118.584 195.261 114.42 193.411 114.188 189.941C103.548 194.336 70.931 212.61 42.0156 215.849C44.7915 223.945 50.5746 223.251 58.6709 222.789C74.4008 221.863 111.181 202.895 124.598 195.492Z" fill="white"/>
<path fill-rule="evenodd" clip-rule="evenodd" d="M190.062 186.471C187.517 184.389 187.749 183.695 184.741 182.77C162.766 176.524 150.737 186.702 132.925 194.104C128.067 196.186 129.455 198.268 133.156 198.962C137.551 199.887 140.327 198.037 144.491 196.649C163.46 190.635 166.235 185.545 189.136 187.165C190.987 187.396 191.912 187.859 190.062 186.471Z" fill="white"/>
<path fill-rule="evenodd" clip-rule="evenodd" d="M137.089 201.506C131.306 201.275 127.836 199.656 127.604 196.186C119.508 199.656 98.2264 212.147 76.2507 220.244C70.699 222.325 64.6846 224.639 59.1328 225.101C68.617 242.451 125.522 205.439 137.089 201.506Z" fill="white"/>
<path fill-rule="evenodd" clip-rule="evenodd" d="M196.076 191.097C193.532 189.015 193.994 189.015 190.987 188.784C164.154 187.627 161.609 193.41 146.342 198.499C141.253 200.119 143.797 202.894 147.498 203.126C161.378 204.282 177.108 189.709 194.226 192.022C195.845 192.254 197.927 192.716 196.076 191.097Z" fill="white"/>
<path fill-rule="evenodd" clip-rule="evenodd" d="M150.275 205.902C144.492 205.671 141.716 204.745 141.716 201.276C122.053 209.14 97.5333 226.721 77.4082 230.191C78.5648 232.504 80.4154 234.123 82.7286 235.049C89.8996 237.824 100.078 232.504 106.324 229.497C123.673 221.401 143.798 207.984 150.275 205.902Z" fill="white"/>
<path fill-rule="evenodd" clip-rule="evenodd" d="M163.691 209.371C159.295 208.909 156.751 207.752 155.363 205.208C137.32 213.998 121.59 226.027 103.084 233.892C103.315 234.354 103.547 234.817 103.778 235.048C119.508 244.995 152.818 217.005 164.385 210.297C166.698 209.14 165.772 209.603 163.691 209.371Z" fill="white"/>
<path fill-rule="evenodd" clip-rule="evenodd" d="M181.734 215.155C177.339 214.692 173.175 212.61 171.325 210.528C171.093 210.065 170.862 209.834 170.631 209.371C169.705 209.834 168.78 210.297 168.086 210.991C153.744 219.55 147.73 227.183 129.918 234.354C130.149 234.817 130.381 235.28 130.612 235.511C148.424 245.458 166.698 223.02 181.734 216.311C183.816 215.386 184.279 215.386 181.734 215.155Z" fill="white"/>
<path fill-rule="evenodd" clip-rule="evenodd" d="M201.164 195.26C198.62 193.178 199.083 193.872 196.075 193.641C191.218 193.41 186.36 193.178 181.965 194.566C175.025 196.648 168.548 200.812 160.914 202.663C159.064 203.125 158.138 203.588 158.138 204.051C157.676 205.901 163.69 208.677 168.317 207.752C178.264 205.67 183.584 199.193 199.314 196.417C201.164 195.954 203.015 196.88 201.164 195.26Z" fill="white"/>
<path fill-rule="evenodd" clip-rule="evenodd" d="M193.3 210.065L209.03 200.812L203.709 197.343C201.396 197.343 196.307 198.499 190.755 200.812C185.435 203.126 178.958 205.207 175.95 207.983C173.175 210.528 175.95 211.685 180.808 213.072C186.823 214.46 187.979 213.072 193.3 210.065Z" fill="white"/>
<path fill-rule="evenodd" clip-rule="evenodd" d="M330.474 306.064L88.0478 57.6235C82.9587 52.0718 79.9515 46.2887 79.4889 38.8864C79.2576 37.0358 79.2576 35.6478 79.0262 33.5659L78.7949 30.0961L83.1901 30.3274C85.272 30.3274 87.3539 30.3274 89.4358 30.5587C96.1441 31.2527 101.465 34.2599 106.554 39.1177L354.994 281.544C338.339 299.819 342.272 288.715 330.474 306.064Z" fill="#9D9D9D"/>
<path fill-rule="evenodd" clip-rule="evenodd" d="M384.604 349.322C388.536 353.948 393.163 358.112 399.177 359.731C402.184 360.657 404.035 360.657 406.348 358.112C406.811 357.649 407.273 357.187 407.967 356.493C410.049 354.411 410.743 353.254 410.512 350.016C410.049 342.151 405.654 337.062 399.408 333.36C399.408 332.204 399.177 331.047 398.252 330.122L396.17 328.04C395.013 326.883 393.625 326.652 392.237 326.883L357.539 287.327L351.293 279L346.667 289.409L329.549 300.281L335.795 305.37L339.727 309.303L377.201 342.382C376.97 343.77 377.201 345.158 378.358 346.083L380.44 348.165C381.365 349.784 383.216 350.016 384.604 349.322Z" fill="#9D9D9D"/>
<path fill-rule="evenodd" clip-rule="evenodd" d="M347.361 293.11L345.742 310.46L342.04 306.99L338.108 303.057L335.332 300.975L347.361 293.11ZM389.462 335.442L389.924 329.428L392.469 332.435L389.462 335.442ZM387.842 327.346L386.917 337.987L382.059 342.845L381.365 342.151L383.216 322.026L387.842 327.346ZM381.365 319.713L379.515 340.3L374.888 336.136L376.97 314.392L381.365 319.713ZM374.888 312.31L372.806 334.517L368.18 330.353L370.493 307.221L374.888 312.31ZM368.18 304.677L365.867 328.271L361.24 324.108L363.553 299.356L368.18 304.677ZM361.703 297.274L359.39 322.488L354.763 318.325L357.308 291.954L361.703 297.274ZM354.994 289.641L352.45 316.243L347.823 312.079L349.905 290.566L352.219 285.708L354.994 289.641Z" fill="white"/>
<path fill-rule="evenodd" clip-rule="evenodd" d="M385.297 344.695L392.005 337.524L392.237 337.755C394.087 339.143 396.4 340.994 398.251 343.307C400.333 345.62 401.952 348.396 402.415 351.866C402.415 352.329 403.109 352.791 403.571 352.791C404.034 352.791 404.497 352.097 404.497 351.635C404.034 347.933 402.183 344.695 399.87 342.15C397.788 339.606 395.244 337.524 393.393 336.136L394.781 334.748C401.952 338.218 407.041 342.844 407.504 350.478C407.504 352.56 407.273 352.791 405.885 354.41C405.422 354.873 404.959 355.336 404.265 356.03C402.877 357.418 402.415 357.186 400.333 356.724C395.012 355.104 389.923 351.403 385.297 344.695Z" fill="white"/>
<path fill-rule="evenodd" clip-rule="evenodd" d="M395.707 327.809C394.088 326.19 391.312 326.421 389.693 328.272L378.126 341.226C376.507 342.845 376.739 345.621 378.358 347.24L380.44 349.091C382.059 350.71 384.835 350.479 386.454 348.628L398.02 335.674C399.639 334.055 399.408 331.279 397.789 329.66L395.707 327.809Z" fill="#9D9D9D"/>
<path fill-rule="evenodd" clip-rule="evenodd" d="M393.625 330.353L395.707 332.204C395.938 332.435 395.938 332.898 395.707 333.36L384.141 346.315C383.909 346.777 383.215 346.777 382.984 346.546L380.902 344.695C380.671 344.464 380.671 344.001 380.902 343.539L392.468 330.585C392.699 330.122 393.162 330.122 393.625 330.353Z" fill="white"/>
<path fill-rule="evenodd" clip-rule="evenodd" d="M342.272 298.199L257.839 211.916L82.7273 36.573C82.496 44.2067 85.0406 49.7584 90.361 55.5415L331.631 302.826L342.272 298.199ZM346.898 293.573L260.615 209.14L85.5032 34.0285C93.1369 33.7971 98.6886 36.3417 104.472 41.6621L351.756 282.932L346.898 293.573Z" fill="#EEF2F5"/>
<path fill-rule="evenodd" clip-rule="evenodd" d="M368.411 262.576C372.575 262.807 377.202 260.263 379.746 257.718C383.216 254.248 387.149 246.383 382.753 241.988C378.59 237.824 370.262 241.063 366.561 244.764C363.785 247.54 361.472 252.398 361.934 256.561L328.624 280.156L305.029 313.467C300.865 313.004 296.007 315.317 293.231 318.093C289.762 321.563 286.292 329.891 290.456 334.286C294.619 338.45 302.716 334.749 306.186 331.279C308.73 328.734 311.275 324.108 311.043 319.944L346.436 298.2L368.411 262.576Z" fill="#9D9D9D"/>
<path fill-rule="evenodd" clip-rule="evenodd" d="M344.353 295.423L307.573 318.093C308.961 320.175 307.804 325.032 304.103 328.734C300.171 332.666 294.85 333.591 293.231 331.741C291.612 330.122 292.074 324.338 296.007 320.406C299.477 316.936 304.566 316.011 306.879 317.399L331.399 282.7L366.329 258.18C365.173 256.098 365.866 251.009 369.336 247.308C373.269 243.375 379.052 242.913 380.671 244.532C382.29 246.151 381.365 251.472 377.664 255.404C373.963 259.105 369.105 260.031 367.023 258.874L344.353 295.423Z" fill="white"/>
<path fill-rule="evenodd" clip-rule="evenodd" d="M313.356 310.228C312.893 310.691 312.893 311.385 313.125 311.848C313.587 312.31 314.281 312.079 314.744 311.616L338.107 290.103L340.883 294.267C341.346 294.73 342.965 294.498 343.428 294.267C343.891 293.804 343.891 292.416 343.428 291.954L339.264 289.178L360.314 265.814C360.777 265.352 361.24 264.889 360.777 264.426C360.314 263.964 359.852 264.658 359.389 265.12L336.951 286.633L334.175 282.932C333.712 282.47 332.324 282.932 332.093 283.395C331.63 283.857 331.399 284.783 331.862 285.245L335.794 287.79L313.356 310.228Z" fill="#9D9D9D"/>
<path fill-rule="evenodd" clip-rule="evenodd" d="M102.621 348.859C98.689 353.485 93.8312 357.418 87.8168 359.037C84.5783 359.731 82.959 359.962 80.6458 357.418C80.1831 356.955 79.7205 356.493 79.0265 355.799C76.9446 353.485 76.2506 352.56 76.482 349.322C76.9446 341.457 81.5711 336.367 87.8168 332.898C87.8168 331.741 88.0481 330.584 88.9734 329.659L91.0553 327.577C92.2119 326.421 93.8312 326.189 95.2191 326.652L130.612 287.558L137.089 279.462L141.715 289.872L158.602 301.206L152.125 306.064L148.192 309.997L110.255 342.382C110.486 343.77 110.024 345.158 109.098 346.083L107.017 348.165C106.091 349.322 104.241 349.553 102.621 348.859Z" fill="#9D9D9D"/>
<path fill-rule="evenodd" clip-rule="evenodd" d="M141.021 293.341L142.409 310.691L146.341 307.452L150.274 303.52L153.049 301.438L141.021 293.341ZM98.226 334.979L97.7633 328.965L95.2188 331.741L98.226 334.979ZM99.8452 326.652L100.771 337.293L105.628 342.15L106.322 341.456L104.703 321.331L99.8452 326.652ZM106.554 319.249L108.173 339.837L113.031 335.673L111.411 313.929L106.554 319.249ZM113.262 312.078L114.881 334.285L119.739 330.122L117.888 306.989L113.262 312.078ZM119.97 304.676L121.821 328.271L126.679 324.107L124.828 299.356L119.97 304.676ZM126.679 297.274L128.529 322.488L133.387 318.324L131.305 291.953L126.679 297.274ZM133.387 289.871L135.469 316.705L140.327 312.541L138.707 291.028L136.626 285.939L133.387 289.871Z" fill="white"/>
<path fill-rule="evenodd" clip-rule="evenodd" d="M102.159 344.233L95.4504 337.062L95.2191 337.293C93.3685 338.681 91.0553 340.532 88.9734 342.845C86.8915 345.158 85.2722 347.934 84.8096 351.404C84.8096 351.867 84.1156 352.329 83.653 352.329C83.1903 352.329 82.7277 351.635 82.7277 351.173C83.1903 347.471 85.2722 344.233 87.3541 341.688C89.4361 339.144 91.9806 337.293 93.8312 335.905L92.6746 334.517C85.5036 337.756 80.4145 342.382 79.7205 350.016C79.4892 352.098 79.7205 352.329 81.3398 353.948C81.8024 354.411 82.2651 354.874 82.959 355.568C84.347 356.956 84.8096 356.956 86.8915 356.262C92.2119 354.411 97.301 350.71 102.159 344.233Z" fill="white"/>
<path fill-rule="evenodd" clip-rule="evenodd" d="M156.057 306.064L398.484 57.6234C403.573 52.0717 406.58 46.2886 407.043 38.8863C407.274 37.0357 407.274 35.6478 407.505 33.5659L407.737 30.096L403.341 30.3274C401.26 30.3274 399.178 30.3274 397.096 30.5587C390.387 31.2526 385.067 34.2598 379.978 39.1176L131.537 281.544C148.192 299.818 144.029 288.715 156.057 306.064Z" fill="#9D9D9D"/>
<path fill-rule="evenodd" clip-rule="evenodd" d="M91.9811 327.115C93.8317 325.495 96.3763 325.958 97.9956 327.577L109.33 340.763C110.95 342.613 110.718 345.158 108.868 346.777L106.786 348.628C104.935 350.247 102.391 349.784 100.771 348.165L89.4366 334.98C88.0487 333.129 88.0487 330.584 89.8993 328.965L91.9811 327.115Z" fill="#9D9D9D"/>
<path fill-rule="evenodd" clip-rule="evenodd" d="M94.062 329.659L91.9801 331.51C91.7488 331.741 91.7488 332.204 91.9801 332.666L103.315 345.852C103.546 346.315 104.24 346.315 104.472 346.083L106.553 344.233C106.785 344.001 106.785 343.539 106.553 343.076L95.2187 329.891C94.9873 329.428 94.5247 329.428 94.062 329.659Z" fill="white"/>
<path fill-rule="evenodd" clip-rule="evenodd" d="M144.029 298.199L228.462 211.916L403.805 36.573C404.036 44.2067 401.492 49.7584 396.171 55.5415L154.67 302.594L144.029 298.199ZM139.634 293.573L225.918 209.14L401.029 34.0285C393.395 33.7971 387.844 36.3417 382.061 41.6621L135.008 282.932L139.634 293.573Z" fill="#EEF2F5"/>
<path fill-rule="evenodd" clip-rule="evenodd" d="M175.025 320.406C174.794 324.57 177.338 329.196 179.883 331.741C183.353 335.211 191.218 339.143 195.613 334.979C200.008 330.816 196.769 322.488 193.068 318.787C190.292 316.011 185.435 313.698 181.271 313.929L158.138 280.156L125.059 256.098C125.522 251.935 123.44 247.077 120.664 244.301C117.194 240.6 108.867 237.13 104.703 241.294C100.308 245.458 104.009 253.554 107.479 257.024C110.023 259.568 114.65 262.344 118.814 262.113L139.864 297.737L175.025 320.406Z" fill="#9D9D9D"/>
<path fill-rule="evenodd" clip-rule="evenodd" d="M142.64 295.655L120.665 258.412C118.583 259.568 113.725 258.643 110.255 254.942C106.554 251.009 105.629 245.689 107.248 244.07C109.099 242.45 114.65 242.913 118.583 246.845C122.053 250.547 122.747 255.636 121.59 257.718L156.057 282.932L180.115 318.093C182.197 316.936 187.286 317.63 190.987 321.331C194.688 325.264 195.151 331.047 193.531 332.666C191.681 334.286 186.36 333.36 182.659 329.428C179.189 325.727 178.033 320.869 179.421 318.787L142.64 295.655Z" fill="white"/>
<path fill-rule="evenodd" clip-rule="evenodd" d="M128.299 264.426C127.837 263.964 127.143 263.732 126.68 264.195C126.217 264.658 126.449 265.352 126.911 265.814L147.962 289.409L143.798 292.185C143.335 292.648 143.566 294.267 143.798 294.73C144.26 295.192 145.648 295.192 146.111 294.73L148.887 290.566L172.019 311.848C172.482 312.31 172.944 312.773 173.407 312.31C173.87 311.848 173.407 311.385 172.713 310.922L151.431 288.253L155.133 285.708C155.595 285.245 155.133 283.857 154.901 283.626C154.439 283.164 153.513 282.932 153.051 283.395L150.506 287.327L128.299 264.426Z" fill="#9D9D9D"/>
</g>
</svg>
